<svg width="126" height="36" viewBox="0 0 126 36" fill="none" xmlns="http://www.w3.org/2000/svg">
<path d="M41.9464 22.6813V8.81976H39.6582V22.6813H41.9464Z" fill="#636363"/>
<path d="M43.3467 18.0608C43.3467 20.8927 45.2597 22.9049 48.1669 22.9049C51.074 22.9049 52.987 20.8927 52.987 18.0608C52.987 15.2288 51.074 13.2167 48.1669 13.2167C45.2597 13.2167 43.3467 15.2288 43.3467 18.0608ZM45.6536 18.0608C45.6536 16.4026 46.6477 15.2475 48.1669 15.2475C49.6861 15.2475 50.6801 16.4026 50.6801 18.0608C50.6801 19.7003 49.6861 20.8741 48.1669 20.8741C46.6477 20.8741 45.6536 19.7003 45.6536 18.0608Z" fill="#636363"/>
<path d="M53.7568 17.8743C53.7568 20.5572 55.5011 22.4948 58.1081 22.4948C59.4585 22.4948 60.6214 21.9545 61.2028 21.0602V22.6253C61.2028 24.1344 60.2462 25.1405 58.652 25.1405C57.2266 25.1405 56.2513 24.4511 56.12 23.2401H53.8131C54.1132 25.6435 55.97 27.2085 58.5207 27.2085C61.5216 27.2085 63.4347 25.2522 63.4347 22.2154V13.4774H61.4091L61.2778 14.7256C60.7151 13.7568 59.5523 13.1793 58.1831 13.1793C55.5386 13.1793 53.7568 15.1728 53.7568 17.8743ZM56.0825 17.8184C56.0825 16.2907 57.0578 15.1728 58.502 15.1728C60.0774 15.1728 61.1278 16.3093 61.1278 17.8184C61.1278 19.3462 60.0774 20.5199 58.502 20.5199C57.0766 20.5199 56.0825 19.3648 56.0825 17.8184Z" fill="#636363"/>
<path d="M64.5669 18.0608C64.5669 20.8927 66.48 22.9049 69.3871 22.9049C72.2942 22.9049 74.2072 20.8927 74.2072 18.0608C74.2072 15.2288 72.2942 13.2167 69.3871 13.2167C66.48 13.2167 64.5669 15.2288 64.5669 18.0608ZM66.8738 18.0608C66.8738 16.4026 67.8679 15.2475 69.3871 15.2475C70.9063 15.2475 71.9003 16.4026 71.9003 18.0608C71.9003 19.7003 70.9063 20.8741 69.3871 20.8741C67.8679 20.8741 66.8738 19.7003 66.8738 18.0608Z" fill="#636363"/>
<path d="M76.6834 11.5958C77.4336 11.5958 78.0526 10.9996 78.0526 10.2357C78.0526 9.49048 77.4336 8.89429 76.6834 8.89429C75.9144 8.89429 75.333 9.49048 75.333 10.2357C75.333 10.9996 75.9144 11.5958 76.6834 11.5958ZM75.5393 22.6813H77.8275V13.4776H75.5393V22.6813Z" fill="#636363"/>
<path d="M79.8325 26.9477H82.0646V21.4143C82.646 22.3645 83.9026 22.9234 85.2905 22.9234C88.0288 22.9234 89.6606 20.8367 89.6231 17.9675C89.5668 15.0797 87.8976 13.1979 85.2718 13.1979C83.8651 13.1979 82.5897 13.8128 82.0271 14.8747L81.8958 13.4774H79.8325V26.9477ZM82.1584 18.0793C82.1584 16.4211 83.1712 15.266 84.7654 15.266C86.3596 15.266 87.3161 16.4398 87.3161 18.0793C87.3161 19.7188 86.3596 20.874 84.7654 20.874C83.1712 20.874 82.1584 19.7375 82.1584 18.0793Z" fill="#636363"/>
<path d="M90.2036 19.9238C90.2786 21.7496 91.7041 22.9234 93.9172 22.9234C96.0928 22.9234 97.5745 21.7683 97.5745 19.9797C97.5745 18.6569 96.7493 17.7626 95.2301 17.3899L93.5984 16.9987C92.9044 16.8124 92.4355 16.5702 92.4355 15.974C92.4355 15.3405 92.9419 14.8934 93.7672 14.8934C94.6299 14.8934 95.1926 15.3778 95.1926 16.1789H97.2745C97.1994 14.3531 95.8303 13.1979 93.8234 13.1979C91.8353 13.1979 90.3537 14.3531 90.3537 16.1044C90.3537 17.2968 91.0476 18.2842 92.8294 18.75L94.4424 19.1599C95.0425 19.3276 95.4177 19.6071 95.4177 20.1287C95.4177 20.8553 94.7237 21.1907 93.8797 21.1907C92.8669 21.1907 92.2855 20.7249 92.2855 19.9238H90.2036Z" fill="#636363"/>
<path d="M102.322 22.9234C103.578 22.9234 104.778 22.3458 105.322 21.4888L105.472 22.6811H107.611V13.4774H105.322V18.3028C105.322 19.961 104.685 20.8926 103.184 20.8926C102.021 20.8926 101.215 20.3336 101.215 18.4332V13.4774H98.9268V19.2344C98.9268 21.4329 100.127 22.9234 102.322 22.9234Z" fill="#636363"/>
<path d="M111.918 22.6812V17.3899C111.918 15.8995 112.799 15.1915 113.887 15.1915C114.975 15.1915 115.687 15.8808 115.687 17.185V22.6812H117.919V17.4086C117.919 15.8995 118.782 15.1915 119.87 15.1915C120.976 15.1915 121.689 15.8808 121.689 17.185V22.6812H123.902V16.6633C123.902 14.5394 122.721 13.1979 120.47 13.1979C119.063 13.1979 117.957 13.8687 117.507 14.9493C117 13.8687 115.988 13.1979 114.45 13.1979C113.362 13.1979 112.386 13.701 111.843 14.5207L111.73 13.4774H109.629V22.6812H111.918Z" fill="#636363"/>
<path d="M106.432 30.9065C106.773 30.9065 107.069 30.6214 107.069 30.2828C107.069 29.9353 106.773 29.6501 106.432 29.6501C106.082 29.6501 105.786 29.9353 105.786 30.2828C105.786 30.6214 106.082 30.9065 106.432 30.9065Z" fill="#636363"/>
<path d="M107.727 28.6075C107.727 29.9708 108.57 30.8886 109.799 30.8886C110.858 30.8886 111.665 30.256 111.835 29.3115H111.028C110.876 29.8372 110.409 30.149 109.853 30.149C109.064 30.149 108.561 29.5431 108.561 28.5986C108.561 27.6363 109.09 27.0482 109.871 27.0482C110.409 27.0482 110.876 27.3333 111.019 27.8947H111.826C111.683 26.9412 110.929 26.2997 109.88 26.2997C108.606 26.2997 107.727 27.2353 107.727 28.6075Z" fill="#636363"/>
<path d="M112.153 28.5985C112.153 29.9084 113.05 30.8886 114.396 30.8886C115.741 30.8886 116.638 29.9084 116.638 28.5985C116.638 27.2887 115.741 26.3085 114.396 26.3085C113.05 26.3085 112.153 27.2887 112.153 28.5985ZM113.005 28.5985C113.005 27.7075 113.553 27.057 114.396 27.057C115.239 27.057 115.786 27.7075 115.786 28.5985C115.786 29.4896 115.239 30.1401 114.396 30.1401C113.553 30.1401 113.005 29.4896 113.005 28.5985Z" fill="#636363"/>
<path d="M118.202 30.7905V28.1708C118.202 27.4847 118.632 27.0392 119.26 27.0392C119.861 27.0392 120.238 27.4224 120.238 28.1085V30.7905H121.063V28.1797C121.063 27.4847 121.485 27.0392 122.121 27.0392C122.713 27.0392 123.09 27.4224 123.09 28.1085V30.7905H123.907V27.9303C123.907 26.9234 123.314 26.3085 122.31 26.3085C121.628 26.3085 121.099 26.6382 120.884 27.1729C120.659 26.6382 120.166 26.3085 119.448 26.3085C118.901 26.3085 118.417 26.558 118.175 26.9857L118.112 26.4333H117.358V30.7905H118.202Z" fill="#636363"/>
<path fill-rule="evenodd" clip-rule="evenodd" d="M1.63086 18.1734L1.63243 18.011L1.63568 17.8486L1.6406 17.6862L1.6472 17.5238L1.65549 17.3614L1.66544 17.199L1.67709 17.0366L1.6904 16.8743L1.70541 16.712L1.72209 16.5498L1.74046 16.3878L1.76049 16.2258L1.78222 16.0639L1.80562 15.9022L1.8307 15.7407L1.85745 15.5794L1.88589 15.4182L1.91598 15.2574L1.94776 15.0966L1.98121 14.9362L2.01633 14.7759L2.05311 14.616L2.09157 14.4565L2.13167 14.2971L2.17345 14.1382L2.21687 13.9795L2.26196 13.8212L2.30869 13.6633L2.35707 13.5059L2.40709 13.3488L2.45876 13.1921L2.51207 13.0359L2.567 12.8801L2.62357 12.7248L2.68176 12.57L2.74156 12.4157L2.80299 12.2619L2.86602 12.1087L2.93067 11.9561L2.99691 11.8039L3.06474 11.6524L3.13417 11.5015L3.20518 11.3512L3.27777 11.2015L3.35194 11.0525L3.42767 10.9041L3.50496 10.7565L3.58381 10.6094L3.6642 10.4632L3.74612 10.3177L3.82959 10.1728L3.91458 10.0288L4.00109 9.8855L4.08911 9.74301L4.17864 9.60134L4.26966 9.46047L4.36218 9.32049L4.45618 9.18125L4.55164 9.04297L4.64858 8.9055L4.74696 8.76893L4.84679 8.63333L4.94806 8.49854L5.05076 8.3648L5.15488 8.23195L5.26041 8.10002L5.36734 7.96912L5.47567 7.8392L5.58537 7.71029L5.69645 7.58239L5.8089 7.45553L5.92269 7.32972L6.03782 7.20497L6.15429 7.08129L6.27208 6.95869L6.39118 6.8372L6.51157 6.71682L6.63325 6.59757L6.75622 6.47945L6.88044 6.36249L7.00592 6.2467L7.13265 6.13208L7.2606 6.01866L7.38978 5.90643L7.52016 5.79541L7.65173 5.68564L7.78449 5.5771L7.91842 5.46981L8.05351 5.36378L8.18975 5.25902L8.32707 5.15556L8.46562 5.05339L8.60523 4.95254L8.74589 4.85301L8.88762 4.75481L9.03049 4.65795L9.17433 4.56244L9.31924 4.4683L9.46521 4.37553L9.61223 4.28416L9.76016 4.19418L9.90914 4.1056L10.059 4.01845L10.2099 3.93272L10.3617 3.84843L10.5145 3.76558L10.6681 3.68419L10.8226 3.60427L10.978 3.52582L11.1344 3.44885L11.2915 3.37338L11.4495 3.29941L11.6083 3.22695L11.768 3.15601L11.9284 3.0866L12.0896 3.01872L12.2515 2.9524L12.4142 2.88762L12.5776 2.82439L12.7418 2.76275L12.9066 2.70267L13.0721 2.64418L13.2383 2.58727L13.4052 2.53196L13.5726 2.47827L13.7407 2.42617L13.9094 2.3757L14.0787 2.32685L14.2484 2.27963L14.4189 2.23404L14.5898 2.1901L14.7612 2.14781L14.9331 2.10717L15.1056 2.06819L15.2784 2.03088L15.4517 1.99523L15.6255 1.96125L15.7997 1.92896L15.9743 1.89835L16.1493 1.86943L16.3246 1.84221L16.5002 1.81667L16.6762 1.79285L16.8525 1.77073L17.0291 1.75031L17.206 1.7316L17.3831 1.71462L17.5605 1.69935L17.7381 1.6858L17.9159 1.67398L18.8719 1.61975L18.9265 6.19546L18.9577 6.1951L19.0897 6.19491L19.2218 6.19602L19.3538 6.19841L19.486 6.20209L19.6181 6.20707L19.7502 6.21332L19.8824 6.22088L20.0146 6.22973L20.1467 6.23986L20.2789 6.2513L20.4109 6.26404L20.543 6.27807L20.6748 6.29338L20.8067 6.31L20.9384 6.32791L21.07 6.34711L21.2014 6.36761L21.3328 6.3894L21.4639 6.41248L21.595 6.43685L21.7258 6.46251L21.8563 6.48947L21.9868 6.51771L22.117 6.54724L22.2469 6.57804L22.3766 6.61014L22.506 6.64352L22.6351 6.67817L22.7639 6.71411L22.8925 6.75131L23.0207 6.78979L23.1486 6.82954L23.2761 6.87056L23.4033 6.91285L23.5301 6.95639L23.6565 7.00119L23.7826 7.04724L23.9082 7.09456L24.0334 7.14311L24.1581 7.19292L24.2824 7.24397L24.4062 7.29625L24.5296 7.34977L24.6525 7.40452L24.7748 7.4605L24.8966 7.51768L25.0179 7.5761L25.1387 7.63573L25.2589 7.69656L25.3785 7.75859L25.4976 7.82183L25.6161 7.88626L25.7339 7.95187L25.8512 8.01867L25.9678 8.08664L26.0837 8.1558L26.1991 8.22612L26.3137 8.29756L26.4276 8.37022L26.5409 8.44394L26.6534 8.51887L26.7653 8.59493L26.8764 8.67205L26.9868 8.75038L27.0964 8.82976L27.2052 8.91028L27.3133 8.99194L27.4205 9.07464L27.527 9.15848L27.6326 9.24329L27.7375 9.32924L27.8415 9.41632L27.9446 9.50437L28.047 9.59348L28.1484 9.68364L28.2489 9.77485L28.3485 9.86711L28.4473 9.96035L28.5451 10.0546L28.642 10.1498L28.738 10.2461L28.833 10.3433L28.9271 10.4415L29.0201 10.5407L29.1123 10.6408L29.2034 10.7419L29.2935 10.8439L29.3826 10.9468L29.4707 11.0507L29.5578 11.1554L29.6438 11.2611L29.7288 11.3677L29.8127 11.4751L29.8955 11.5834L29.9773 11.6926L30.058 11.8026L30.1376 11.9135L30.216 12.0252L30.2934 12.1376L30.3696 12.2509L30.4447 12.3651L30.5187 12.48L30.5914 12.5957L30.6631 12.7121L30.7336 12.8293L30.8029 12.9472L30.871 13.0659L30.9379 13.1853L31.0036 13.3055L31.0681 13.4262L31.1314 13.5477L31.1935 13.6699L31.2543 13.7927L31.3139 13.9162L31.3723 14.0403L31.4294 14.1651L31.4853 14.2905L31.5398 14.4164L31.5931 14.543L31.6451 14.6701L31.6958 14.7979L31.7452 14.9261L31.7933 15.055L31.8401 15.1843L31.8856 15.3142L31.9298 15.4446L31.9727 15.5755L32.0142 15.7068L32.0544 15.8386L32.0933 15.9708L32.1308 16.1035L32.1669 16.2367L32.2017 16.3703L32.2351 16.5042L32.2672 16.6386L32.2979 16.7733L32.3271 16.9084L32.3551 17.0438L32.3816 17.1796L32.4067 17.3157L32.4305 17.4521L32.4529 17.5888L32.4738 17.7257L32.4934 17.863L32.5115 18.0005L32.5282 18.1383L32.5436 18.2762L32.5574 18.4144L32.5699 18.5528L32.581 18.6914L32.5906 18.8302L32.5988 18.9691L32.6055 19.1081L32.6109 19.2473L32.6147 19.3866L32.6173 19.526L32.6183 19.6655L32.6178 19.8051L32.616 19.9447L32.6126 20.0844L32.6079 20.2241L32.6017 20.3638L32.5941 20.5036L32.585 20.6433L32.5745 20.783L32.5625 20.9227L32.549 21.0623L32.5342 21.2019L32.5178 21.3413L32.5 21.4807L32.4809 21.62L32.4601 21.7591L32.438 21.8981L32.4145 22.037L32.3894 22.1757L32.363 22.3142L32.3351 22.4525L32.3058 22.5907L32.2749 22.7285L32.2427 22.8662L32.2091 23.0036L32.174 23.1408L32.1375 23.2776L32.0995 23.4142L32.0602 23.5504L32.0194 23.6863L31.9771 23.822L31.9334 23.9572L31.8884 24.0922L31.8419 24.2266L31.794 24.3608L31.7447 24.4945L31.694 24.6278L31.6419 24.7606L31.5884 24.8931L31.5335 25.025L31.4773 25.1565L31.4196 25.2876L31.3606 25.418L31.3001 25.548L31.2383 25.6774L31.1752 25.8063L31.1106 25.9347L31.0448 26.0624L30.9776 26.1897L30.9091 26.3162L30.8391 26.4423L30.7679 26.5676L30.6953 26.6923L30.6214 26.8164L30.5463 26.9398L30.4698 27.0626L30.3919 27.1846L30.3128 27.306L30.2325 27.4266L30.1508 27.5465L30.0678 27.6656L29.9836 27.784L29.8981 27.9017L29.8114 28.0186L29.7234 28.1346L29.6342 28.2499L29.5437 28.3643L29.4521 28.4779L29.3592 28.5907L29.2651 28.7026L29.1698 28.8136L29.0733 28.9238L28.9756 29.0331L28.8768 29.1414L28.7768 29.2489L28.6757 29.3555L28.5733 29.4611L28.4699 29.5657L28.3653 29.6694L28.2596 29.7721L28.1529 29.8738L28.045 29.9746L27.9361 30.0743L27.826 30.173L27.7148 30.2707L27.6027 30.3673L27.4894 30.463L27.3752 30.5575L27.2599 30.6509L27.1436 30.7433L27.0263 30.8346L26.9079 30.9248L26.7886 31.0138L26.6684 31.1018L26.5472 31.1886L26.4249 31.2742L26.3018 31.3588L26.1778 31.4422L26.0528 31.5243L25.9269 31.6053L25.8002 31.6852L25.6726 31.7637L25.5441 31.8412L25.4147 31.9173L25.2844 31.9923L25.1535 32.0661L25.0215 32.1385L24.8889 32.2098L24.7554 32.2797L24.6212 32.3484L24.4862 32.4158L24.3504 32.4819L24.2139 32.5467L24.0767 32.6103L23.9387 32.6725L23.8001 32.7335L23.6607 32.793L23.5207 32.8512L23.38 32.9082L23.2387 32.9638L23.0967 33.0179L22.9541 33.0708L22.8109 33.1223L22.6671 33.1724L22.5227 33.2211L22.3778 33.2685L22.2323 33.3144L22.0862 33.359L21.9397 33.4021L21.7926 33.4439L21.645 33.4842L21.497 33.5232L21.3485 33.5606L21.1996 33.5966L21.0502 33.6313L20.9003 33.6644L20.7501 33.6962L20.5995 33.7265L20.4484 33.7553L20.2971 33.7827L20.1454 33.8086L19.9933 33.833L19.841 33.856L19.6883 33.8775L19.5354 33.8975L19.3822 33.916L19.2286 33.9331L19.0749 33.9486L18.9209 33.9627L18.7668 33.9753L18.6124 33.9864L18.4579 33.9959L18.3031 34.004L18.1483 34.0106L17.9933 34.0156L17.8382 34.0192L17.683 34.0212L17.5276 34.0218L17.3723 34.0208L17.2169 34.0183L17.0614 34.0143L16.9059 34.0087L16.7503 34.0017L16.5948 33.9932L16.4394 33.983L16.2839 33.9715L16.1286 33.9583L15.9732 33.9437L15.8179 33.9275L15.6628 33.9099L15.5078 33.8907L15.3529 33.87L15.1982 33.8477L15.0436 33.8239L14.8892 33.7987L14.735 33.7719L14.581 33.7436L14.4273 33.7138L14.2737 33.6825L14.1205 33.6496L13.9674 33.6153L13.8148 33.5795L13.6624 33.5421L13.5103 33.5032L13.3585 33.4629L13.2072 33.4211L13.0562 33.3778L12.9055 33.333L12.7553 33.2866L12.6055 33.2388L12.4561 33.1896L12.3071 33.1388L12.1586 33.0866L12.0106 33.0329L11.8631 32.9778L11.716 32.9211L11.5696 32.8631L11.4236 32.8035L11.2782 32.7425L11.1334 32.6802L10.9891 32.6163L10.8455 32.551L10.7024 32.4843L10.56 32.4162L10.4183 32.3466L10.2772 32.2756L10.1367 32.2033L9.99705 32.1295L9.85793 32.0544L9.71963 31.9778L9.58206 31.8999L9.44523 31.8206L9.30913 31.7399L9.17384 31.6579L9.03929 31.5745L8.90556 31.4899L8.77272 31.4038L8.64062 31.3164L8.50941 31.2277L8.3791 31.1377L8.2496 31.0464L8.12101 30.9537L7.99333 30.8598L7.86656 30.7645L7.74073 30.6681L7.61583 30.5704L7.49189 30.4713L7.36893 30.3711L7.24694 30.2696L7.12595 30.1669L7.00597 30.063L6.88702 29.9577L6.76911 29.8514L6.65224 29.7439L6.53643 29.6351L6.42171 29.5252L6.30806 29.4141L6.19551 29.3019L6.08408 29.1886L5.97378 29.0741L5.8646 28.9585L5.75658 28.8417L5.64972 28.7239L5.54403 28.6049L5.43952 28.485L5.33621 28.3639L5.23411 28.2418L5.13323 28.1186L5.03357 27.9944L4.93516 27.8692L4.838 27.743L4.7421 27.6157L4.64747 27.4875L4.55414 27.3583L4.46209 27.2281L4.37135 27.097L4.28193 26.965L4.19384 26.832L4.10708 26.6982L4.02166 26.5634L3.9376 26.4277L3.85491 26.2912L3.7736 26.1537L3.69367 26.0155L3.61514 25.8765L3.538 25.7366L3.46229 25.5958L3.38798 25.4543L3.31512 25.312L3.24369 25.169L3.17371 25.0252L3.10519 24.8806L3.03813 24.7353L2.97254 24.5893L2.90843 24.4427L2.84581 24.2952L2.78469 24.1472L2.72507 23.9985L2.66696 23.8491L2.61037 23.6992L2.5553 23.5486L2.50177 23.3975L2.44977 23.2457L2.39931 23.0934L2.35042 22.9405L2.30307 22.7871L2.2573 22.6332L2.2131 22.4787L2.17046 22.3237L2.12941 22.1684L2.08995 22.0125L2.05208 21.8562L2.01582 21.6994L1.98116 21.5422L1.9481 21.3846L1.91665 21.2267L1.88682 21.0684L1.85862 20.9097L1.83204 20.7507L1.80709 20.5914L1.78377 20.4317L1.7621 20.2717L1.74207 20.1115L1.72368 19.951L1.70694 19.7903L1.69186 19.6294L1.67843 19.4682L1.66665 19.3069L1.65654 19.1453L1.64809 18.9837L1.64131 18.8218L1.63618 18.6599L1.63273 18.4978L1.63097 18.3356L1.63086 18.1734ZM17.4329 6.2913L17.3957 3.17245L17.3604 3.17583L17.1983 3.19297L17.0366 3.21167L16.8749 3.23195L16.714 3.25374L16.5532 3.27712L16.3925 3.30206L16.2324 3.32854L16.0724 3.35659L15.9132 3.3861L15.7538 3.41726L15.5955 3.44982L15.437 3.48403L15.2793 3.51969L15.1217 3.55694L14.9649 3.59561L14.8085 3.63584L14.6525 3.67756L14.497 3.72079L14.3422 3.76548L14.1877 3.8117L14.034 3.85935L13.8807 3.90852L13.7282 3.95905L13.5759 4.01118L13.4245 4.0647L13.2738 4.11964L13.1235 4.17607L12.974 4.23389L12.8254 4.29309L12.6771 4.35382L12.5296 4.41593L12.3828 4.47945L12.2369 4.54432L12.0916 4.61059L11.9472 4.67819L11.8033 4.74729L11.6604 4.81765L11.5183 4.88938L11.377 4.96246L11.2365 5.0369L11.0969 5.11261L10.958 5.18971L10.8199 5.26816L10.6831 5.34772L10.5467 5.42884L10.4115 5.51104L10.2773 5.59451L10.1437 5.67936L10.0112 5.76544L9.8797 5.85278L9.74939 5.94115L9.61957 6.03108L9.49106 6.12198L9.36352 6.21413L9.23688 6.30754L9.11138 6.40207L8.98702 6.49773L8.8634 6.59473L8.74116 6.69266L8.61982 6.79187L8.49962 6.89216L8.38048 6.99362L8.26257 7.09605L8.14554 7.19978L8.02984 7.30443L7.91513 7.41029L7.80175 7.51704L7.6894 7.62494L7.5783 7.73382L7.46834 7.84378L7.35944 7.95487L7.25197 8.06672L7.14571 8.17954L7.04039 8.29367L6.93654 8.40854L6.83395 8.52421L6.73242 8.6411L6.63236 8.75872L6.53342 8.8774L6.4358 8.99688L6.33946 9.11733L6.24438 9.2386L6.1507 9.36067L6.05824 9.48364L5.96706 9.60757L5.87734 9.73208L5.78882 9.85764L5.70171 9.98384L5.61595 10.1109L5.53148 10.2387L5.44843 10.3672L5.36675 10.4964L5.28643 10.6265L5.20755 10.7571L5.12997 10.8886L5.05378 11.0208L4.9791 11.1535L4.90575 11.2869L4.8338 11.421L4.76331 11.5557L4.69421 11.6911L4.62659 11.827L4.56038 11.9634L4.49564 12.1005L4.4323 12.2382L4.37046 12.3763L4.31003 12.5151L4.25107 12.6543L4.19362 12.794L4.13761 12.9342L4.08306 13.0749L4.03002 13.216L3.97844 13.3576L3.92839 13.4995L3.87978 13.642L3.83268 13.7848L3.78708 13.9281L3.743 14.0715L3.70039 14.2155L3.65931 14.3597L3.61974 14.5043L3.58166 14.6492L3.54511 14.7944L3.51007 14.9398L3.47656 15.0855L3.44456 15.2315L3.41409 15.3777L3.38514 15.5241L3.35771 15.6707L3.33181 15.8175L3.30743 15.9645L3.28459 16.1116L3.26328 16.2589L3.24349 16.4063L3.22523 16.5538L3.20851 16.7014L3.19332 16.8492L3.17966 16.9969L3.16752 17.1447L3.15692 17.2926L3.14786 17.4405L3.14031 17.5884L3.1343 17.7363L3.12982 17.8841L3.12687 18.0319L3.12543 18.1797L3.12553 18.3274L3.12714 18.475L3.13028 18.6226L3.13494 18.7701L3.14111 18.9173L3.14881 19.0645L3.15801 19.2114L3.16872 19.3583L3.18095 19.5049L3.19468 19.6514L3.2099 19.7977L3.22664 19.9437L3.24486 20.0895L3.26458 20.2349L3.28579 20.3802L3.30849 20.5252L3.33266 20.6698L3.35833 20.8141L3.38546 20.9582L3.41405 21.1018L3.44412 21.2452L3.47564 21.3881L3.50863 21.5306L3.54307 21.6728L3.57895 21.8145L3.61628 21.9559L3.65503 22.0967L3.69523 22.2371L3.73685 22.3771L3.77989 22.5166L3.82435 22.6556L3.8702 22.7941L3.91747 22.932L3.96613 23.0694L4.01619 23.2063L4.06761 23.3425L4.12044 23.4783L4.17461 23.6134L4.23016 23.748L4.28707 23.8819L4.34531 24.0151L4.40492 24.1478L4.46585 24.2799L4.52811 24.4112L4.59168 24.5418L4.65657 24.6718L4.72277 24.801L4.79026 24.9296L4.85904 25.0574L4.9291 25.1845L5.00043 25.3108L5.07302 25.4364L5.14687 25.5612L5.22197 25.6851L5.29827 25.8083L5.37586 25.9307L5.45462 26.0522L5.53462 26.173L5.61581 26.2929L5.69818 26.4119L5.78173 26.5301L5.86649 26.6474L5.95237 26.7638L6.03944 26.8793L6.1276 26.9938L6.21695 27.1075L6.30737 27.2202L6.39893 27.332L6.49162 27.4429L6.58534 27.5527L6.68017 27.6616L6.77606 27.7695L6.87305 27.8764L6.97105 27.9823L7.07007 28.0872L7.17014 28.191L7.27122 28.2939L7.37333 28.3957L7.4764 28.4964L7.58049 28.5961L7.6855 28.6947L7.79149 28.7923L7.89845 28.8888L8.00633 28.9841L8.11507 29.0783L8.22481 29.1715L8.33547 29.2635L8.44686 29.3544L8.55931 29.4442L8.6725 29.5328L8.78658 29.6203L8.90148 29.7066L9.01728 29.7918L9.1338 29.8757L9.25115 29.9585L9.36923 30.04L9.4882 30.1205L9.60783 30.1996L9.72836 30.2776L9.84945 30.3544L9.97136 30.4299L10.094 30.5043L10.2172 30.5773L10.3413 30.6492L10.4659 30.7197L10.5912 30.7891L10.7171 30.8571L10.8437 30.924L10.9709 30.9895L11.0986 31.0538L11.2271 31.1168L11.3561 31.1785L11.4856 31.2389L11.6157 31.298L11.7462 31.3558L11.8774 31.4123L12.009 31.4675L12.1412 31.5215L12.2738 31.574L12.4069 31.6252L12.5405 31.6752L12.6744 31.7238L12.8087 31.771L12.9436 31.817L13.0788 31.8616L13.2144 31.9049L13.3503 31.9467L13.4867 31.9873L13.6233 32.0265L13.7603 32.0644L13.8976 32.1009L14.0352 32.136L14.1731 32.1698L14.3111 32.2022L14.4496 32.2333L14.5882 32.263L14.727 32.2913L14.8661 32.3183L15.0054 32.3439L15.1449 32.3681L15.2845 32.391L15.4242 32.4124L15.5642 32.4325L15.7043 32.4512L15.8444 32.4686L15.9846 32.4846L16.125 32.4992L16.2654 32.5125L16.4059 32.5243L16.5464 32.5348L16.6869 32.5439L16.8275 32.5517L16.968 32.558L17.1085 32.563L17.249 32.5667L17.3895 32.5689L17.5298 32.5697L17.6702 32.5693L17.8104 32.5674L17.9505 32.5642L18.0905 32.5596L18.2305 32.5537L18.3702 32.5464L18.5098 32.5377L18.6492 32.5278L18.7885 32.5164L18.9275 32.5037L19.0663 32.4896L19.205 32.4742L19.3433 32.4576L19.4814 32.4395L19.6192 32.42L19.7568 32.3993L19.894 32.3773L20.031 32.3539L20.1677 32.3292L20.3039 32.3032L20.4399 32.2759L20.5755 32.2472L20.7107 32.2173L20.8455 32.186L20.98 32.1535L21.1139 32.1197L21.2475 32.0845L21.3806 32.0481L21.5133 32.0105L21.6455 31.9715L21.7773 31.9313L21.9085 31.8899L22.0393 31.8472L22.1695 31.8033L22.2991 31.7581L22.4284 31.7116L22.557 31.6639L22.685 31.615L22.8125 31.565L22.9393 31.5137L23.0655 31.4611L23.1912 31.4074L23.3162 31.3525L23.4404 31.2964L23.5642 31.2392L23.6873 31.1807L23.8096 31.1211L23.9313 31.0603L24.0523 30.9984L24.1726 30.9354L24.2922 30.8711L24.4109 30.8059L24.529 30.7394L24.6463 30.672L24.763 30.6033L24.8786 30.5336L24.9937 30.4627L25.1078 30.3909L25.2212 30.3179L25.3338 30.2438L25.4456 30.1687L25.5563 30.0927L25.6663 30.0155L25.7755 29.9373L25.8838 29.8582L25.9913 29.7779L26.0977 29.6968L26.2035 29.6145L26.3081 29.5314L26.4118 29.4473L26.5148 29.3622L26.6167 29.2761L26.7176 29.1892L26.8177 29.1012L26.9167 29.0124L27.0148 28.9227L27.1119 28.832L27.2079 28.7406L27.303 28.648L27.3971 28.5547L27.4902 28.4606L27.5822 28.3656L27.6732 28.2698L27.763 28.1733L27.8521 28.0756L27.9398 27.9774L28.0267 27.8783L28.1123 27.7785L28.1969 27.6778L28.2804 27.5764L28.3628 27.4743L28.4442 27.3713L28.5243 27.2678L28.6035 27.1634L28.6814 27.0584L28.7583 26.9526L28.8341 26.8461L28.9085 26.7392L28.982 26.6313L29.0541 26.523L29.1252 26.4139L29.1953 26.3042L29.264 26.194L29.3315 26.0832L29.3979 25.9715L29.463 25.8596L29.527 25.7469L29.5899 25.6337L29.6514 25.5201L29.7118 25.4057L29.771 25.2909L29.8288 25.1759L29.8856 25.06L29.9411 24.9437L29.9953 24.827L30.0483 24.7099L30.1001 24.5923L30.1506 24.4743L30.1999 24.3558L30.248 24.2368L30.2947 24.1178L30.3402 23.998L30.3844 23.8781L30.4274 23.7576L30.4692 23.6369L30.5096 23.5158L30.5487 23.3947L30.5867 23.2727L30.6232 23.1509L30.6585 23.0286L30.6926 22.9062L30.7254 22.7834L30.7568 22.6605L30.7871 22.5372L30.8159 22.4137L30.8436 22.29L30.8699 22.1661L30.8949 22.0422L30.9186 21.9178L30.941 21.7937L30.9621 21.6691L30.982 21.5445L31.0005 21.4198L31.0178 21.2949L31.0337 21.1701L31.0483 21.0448L31.0616 20.92L31.0737 20.7948L31.0844 20.6698L31.0938 20.5444L31.102 20.4195L31.1088 20.2942L31.1144 20.1688L31.1186 20.0437L31.1216 19.9189L31.1233 19.7936L31.1237 19.6685L31.1228 19.5436L31.1206 19.4187L31.1171 19.2939L31.1123 19.1696L31.1062 19.0447L31.0989 18.9205L31.0903 18.7962L31.0804 18.6724L31.0692 18.5483L31.0568 18.4247L31.0431 18.3011L31.0281 18.1779L31.0119 18.0548L30.9944 17.9321L30.9756 17.8092L30.9556 17.687L30.9344 17.5652L30.9119 17.4433L30.8881 17.3218L30.8631 17.2007L30.8369 17.0796L30.8096 16.9594L30.7808 16.8391L30.751 16.7195L30.7198 16.5998L30.6875 16.4809L30.654 16.3623L30.6192 16.2438L30.5834 16.1261L30.5463 16.0088L30.5078 15.8916L30.4685 15.7753L30.4277 15.6591L30.3859 15.5435L30.3429 15.4283L30.2988 15.3138L30.2533 15.1995L30.2069 15.0859L30.1593 14.9729L30.1106 14.8605L30.0606 14.7482L30.0098 14.637L29.9575 14.5259L29.9043 14.4158L29.85 14.3061L29.7945 14.1968L29.7381 14.0884L29.6804 13.9805L29.6216 13.8731L29.5621 13.7668L29.5012 13.6607L29.4394 13.5554L29.3763 13.4507L29.3126 13.347L29.2474 13.2436L29.1815 13.1411L29.1144 13.0391L29.0464 12.938L28.9775 12.8378L28.9074 12.738L28.8363 12.6391L28.7644 12.5409L28.6914 12.4436L28.6175 12.3469L28.5427 12.2512L28.4669 12.1561L28.3902 12.0619L28.3126 11.9685L28.2339 11.8758L28.1544 11.784L28.0741 11.693L27.993 11.603L27.9109 11.5137L27.8277 11.4252L27.7441 11.3378L27.6591 11.251L27.5738 11.1654L27.4874 11.0804L27.4003 10.9965L27.3121 10.9132L27.2235 10.8312L27.1338 10.7499L27.0434 10.6695L26.9525 10.5902L26.8606 10.5118L26.7678 10.4341L26.6744 10.3576L26.5804 10.282L26.4855 10.2074L26.39 10.1337L26.2939 10.0612L26.1968 9.98927L26.0993 9.91871L26.0011 9.84905L25.9021 9.78028L25.8027 9.71264L25.7022 9.64581L25.6017 9.58036L25.5001 9.51563L25.3982 9.45204L25.2954 9.38943L25.1923 9.32786L25.0886 9.26743L24.9844 9.20814L24.8793 9.14957L24.7742 9.09238L24.6682 9.03608L24.5618 8.98092L24.455 8.92689L24.3475 8.87383L24.2396 8.82183L24.1313 8.77104L24.0224 8.72122L23.9133 8.67261L23.8036 8.62498L23.6901 8.57703L23.5832 8.53321L23.4721 8.48881L23.3611 8.4458L23.2492 8.4036L23.1373 8.36277L23.025 8.32292L22.9123 8.28428L22.7992 8.24661L22.6861 8.21024L22.5724 8.17492L22.4585 8.14074L22.3445 8.10777L22.23 8.07582L22.1151 8.04497L22.0003 8.01538L21.8854 7.98692L21.7696 7.95949L21.6543 7.93334L21.5385 7.90823L21.4226 7.88433L21.3063 7.86152L21.1902 7.83991L21.0737 7.81941L20.9574 7.80011L20.8404 7.78188L20.7238 7.76486L20.607 7.74897L20.49 7.73422L20.3729 7.72063L20.2559 7.7082L20.1388 7.69691L20.0216 7.68677L19.9044 7.67777L19.787 7.66991L19.67 7.66322L19.5529 7.65767L19.4354 7.65326L19.3185 7.65L19.2014 7.64788L19.0844 7.6469L18.9672 7.64707L18.9438 7.64733L18.9807 10.7435L19.0472 10.7432L19.1327 10.7437L19.2182 10.745L19.3039 10.7472L19.3896 10.7502L19.4753 10.754L19.561 10.7587L19.6468 10.7642L19.7326 10.7706L19.8183 10.7779L19.9041 10.786L19.9898 10.7949L20.0756 10.8047L20.1613 10.8153L20.2469 10.8267L20.3326 10.8391L20.4181 10.8522L20.5036 10.8662L20.589 10.8811L20.6743 10.8969L20.7595 10.9135L20.8447 10.9309L20.9297 10.9491L21.0146 10.9682L21.0993 10.9882L21.184 11.009L21.2684 11.0307L21.3527 11.0532L21.4369 11.0765L21.5209 11.1007L21.6047 11.1258L21.6883 11.1516L21.7716 11.1783L21.8548 11.2059L21.9378 11.2343L22.0205 11.2636L22.103 11.2936L22.1852 11.3245L22.2672 11.3562L22.3489 11.3888L22.4304 11.4222L22.5116 11.4564L22.5924 11.4914L22.673 11.5273L22.7533 11.5639L22.8332 11.6014L22.9128 11.6397L22.9921 11.6789L23.071 11.7188L23.1496 11.7596L23.2279 11.801L23.3057 11.8434L23.3832 11.8865L23.4603 11.9304L23.537 11.9751L23.6133 12.0206L23.6892 12.0669L23.7646 12.114L23.8396 12.1618L23.9142 12.2104L23.9883 12.2598L24.0621 12.3099L24.1353 12.3609L24.208 12.4125L24.2803 12.4649L24.352 12.5181L24.4234 12.572L24.4941 12.6266L24.5644 12.682L24.6341 12.7381L24.7033 12.795L24.772 12.8526L24.8402 12.9108L24.9078 12.9698L24.9748 13.0295L25.0413 13.0899L25.1071 13.151L25.1724 13.2128L25.2371 13.2752L25.3012 13.3384L25.3647 13.4023L25.4275 13.4668L25.4898 13.5319L25.5514 13.5978L25.6124 13.6643L25.6728 13.7315L25.7324 13.7992L25.7915 13.8676L25.8499 13.9366L25.9076 14.0063L25.9646 14.0766L26.021 14.1475L26.0766 14.219L26.1315 14.2911L26.1858 14.3639L26.2393 14.4371L26.2921 14.511L26.3441 14.5854L26.3955 14.6604L26.4461 14.736L26.4959 14.8121L26.545 14.8888L26.5933 14.966L26.6409 15.0437L26.6878 15.1219L26.7337 15.2007L26.779 15.28L26.8234 15.3597L26.8671 15.44L26.91 15.5208L26.952 15.602L26.9932 15.6838L27.0337 15.766L27.0733 15.8486L27.112 15.9316L27.15 16.0152L27.1871 16.0992L27.2234 16.1836L27.2587 16.2684L27.2933 16.3536L27.327 16.4392L27.3598 16.5252L27.3917 16.6116L27.4228 16.6983L27.4531 16.7855L27.4824 16.873L27.5108 16.9609L27.5384 17.049L27.565 17.1376L27.5908 17.2264L27.6157 17.3156L27.6396 17.4051L27.6626 17.4949L27.6847 17.5849L27.7059 17.6753L27.7262 17.7659L27.7456 17.8568L27.764 17.9479L27.7814 18.0393L27.798 18.131L27.8137 18.2229L27.8283 18.3149L27.842 18.4072L27.8548 18.4997L27.8667 18.5923L27.8776 18.6852L27.8875 18.7783L27.8964 18.8715L27.9045 18.9649L27.9115 19.0583L27.9176 19.152L27.9227 19.2457L27.9268 19.3396L27.93 19.4336L27.9322 19.5277L27.9335 19.6219L27.9337 19.7162L27.933 19.8105L27.9312 19.9049L27.9286 19.9993L27.9249 20.0938L27.9202 20.1883L27.9146 20.2828L27.908 20.3774L27.9004 20.472L27.8918 20.5665L27.8822 20.661L27.8716 20.7555L27.8601 20.85L27.8476 20.9444L27.834 21.0388L27.8195 21.133L27.804 21.2273L27.7876 21.3214L27.77 21.4154L27.7516 21.5094L27.7321 21.6032L27.7116 21.6969L27.6903 21.7905L27.6679 21.8839L27.6445 21.9771L27.6201 22.0703L27.5947 22.1632L27.5684 22.2559L27.5411 22.3484L27.5128 22.4408L27.4835 22.533L27.4531 22.6249L27.4219 22.7165L27.3897 22.808L27.3566 22.8992L27.3224 22.9901L27.2873 23.0807L27.2512 23.1711L27.2142 23.2612L27.1762 23.351L27.1372 23.4405L27.0974 23.5297L27.0565 23.6185L27.0147 23.707L26.9719 23.7951L26.9282 23.8829L26.8835 23.9703L26.838 24.0574L26.7915 24.144L26.744 24.2303L26.6957 24.3161L26.6464 24.4016L26.5962 24.4866L26.545 24.5712L26.493 24.6553L26.4401 24.7391L26.3862 24.8223L26.3315 24.905L26.2758 24.9873L26.2193 25.0691L26.1619 25.1504L26.1036 25.2312L26.0444 25.3114L25.9843 25.3912L25.9234 25.4705L25.8616 25.5491L25.799 25.6272L25.7355 25.7048L25.6711 25.7818L25.606 25.8582L25.5399 25.9341L25.4731 26.0093L25.4054 26.0839L25.3369 26.1579L25.2676 26.2313L25.1975 26.3042L25.1266 26.3763L25.0549 26.4478L24.9823 26.5186L24.9091 26.5888L24.835 26.6583L24.7602 26.7271L24.6846 26.7953L24.6082 26.8627L24.5311 26.9294L24.4532 26.9955L24.3747 27.0608L24.2954 27.1255L24.2154 27.1893L24.1346 27.2524L24.0531 27.3148L23.971 27.3764L23.8881 27.4373L23.8045 27.4974L23.7204 27.5567L23.6355 27.6152L23.55 27.673L23.4637 27.7299L23.3768 27.7861L23.2893 27.8414L23.2013 27.8959L23.1125 27.9495L23.0232 28.0024L22.9331 28.0544L22.8426 28.1056L22.7515 28.1559L22.6597 28.2054L22.5674 28.254L22.4745 28.3017L22.3811 28.3485L22.2871 28.3944L22.1926 28.4395L22.0975 28.4837L22.002 28.5269L21.9059 28.5693L21.8094 28.6108L21.7122 28.6513L21.6147 28.6909L21.5167 28.7296L21.4182 28.7674L21.3193 28.8042L21.2199 28.8401L21.1201 28.875L21.0198 28.909L20.9191 28.942L20.818 28.974L20.7166 29.0051L20.6147 29.0352L20.5125 29.0643L20.4099 29.0925L20.3069 29.1197L20.2036 29.1458L20.0999 29.171L19.9959 29.1952L19.8916 29.2184L19.787 29.2406L19.6821 29.2617L19.5769 29.2819L19.4714 29.3011L19.3657 29.3193L19.2597 29.3363L19.1535 29.3524L19.047 29.3675L18.9403 29.3815L18.8333 29.3945L18.7263 29.4064L18.619 29.4173L18.5115 29.4272L18.4038 29.4361L18.296 29.4438L18.1881 29.4506L18.0799 29.4562L17.9717 29.4608L17.8634 29.4644L17.7549 29.4669L17.6464 29.4684L17.5377 29.4688L17.429 29.4681L17.3203 29.4664L17.2114 29.4636L17.1025 29.4597L16.9937 29.4548L16.8847 29.4488L16.7759 29.4417L16.6669 29.4336L16.5581 29.4244L16.4492 29.4141L16.3403 29.4028L16.2315 29.3904L16.1228 29.3769L16.0141 29.3623L15.9056 29.3467L15.7972 29.33L15.6888 29.3123L15.5805 29.2934L15.4724 29.2736L15.3644 29.2526L15.2566 29.2305L15.1489 29.2074L15.0414 29.1832L14.9341 29.158L14.8269 29.1316L14.72 29.1043L14.6133 29.0758L14.5068 29.0463L14.4006 29.0158L14.2946 28.9842L14.1888 28.9516L14.0834 28.9178L13.9783 28.883L13.8733 28.8472L13.7688 28.8104L13.6646 28.7725L13.5606 28.7335L13.457 28.6935L13.3538 28.6525L13.2509 28.6104L13.1484 28.5673L13.0463 28.5232L12.9446 28.478L12.8432 28.4318L12.7424 28.3847L12.6419 28.3365L12.5418 28.2872L12.4422 28.237L12.3431 28.1858L12.2444 28.1336L12.1463 28.0804L12.0486 28.0262L11.9514 27.9709L11.8547 27.9148L11.7585 27.8576L11.6629 27.7994L11.5678 27.7404L11.4733 27.6803L11.3793 27.6193L11.286 27.5572L11.1932 27.4943L11.1009 27.4305L11.0094 27.3657L10.9184 27.2999L10.828 27.2332L10.7382 27.1656L10.6492 27.097L10.5608 27.0276L10.473 26.9572L10.3859 26.886L10.2995 26.8138L10.2138 26.7409L10.1288 26.6669L10.0445 26.5921L9.96092 26.5165L9.87815 26.44L9.79604 26.3626L9.71466 26.2844L9.63409 26.2053L9.55434 26.1255L9.47532 26.0447L9.39703 25.9632L9.31957 25.8808L9.24299 25.7977L9.16716 25.7137L9.09213 25.629L9.01801 25.5434L8.94462 25.4572L8.87221 25.3701L8.80053 25.2822L8.72983 25.1937L8.65994 25.1043L8.59095 25.0142L8.52286 24.9234L8.45559 24.832L8.38929 24.7397L8.32397 24.6468L8.25947 24.5532L8.19595 24.4589L8.13337 24.3639L8.07173 24.2683L8.01103 24.172L7.95131 24.075L7.89255 23.9774L7.83476 23.8792L7.77796 23.7803L7.72214 23.6809L7.66733 23.5808L7.61351 23.4802L7.56071 23.3789L7.50892 23.2771L7.45815 23.1747L7.40842 23.0717L7.35972 22.9683L7.31206 22.8642L7.26545 22.7597L7.2199 22.6546L7.17541 22.549L7.13198 22.443L7.08963 22.3365L7.04835 22.2294L7.00816 22.1219L6.96905 22.014L6.93104 21.9055L6.89413 21.7967L6.85833 21.6874L6.82363 21.5778L6.79005 21.4678L6.75759 21.3573L6.72625 21.2465L6.69603 21.1352L6.66696 21.0236L6.63903 20.9117L6.61222 20.7995L6.58658 20.6869L6.56207 20.574L6.53872 20.4608L6.51654 20.3473L6.49551 20.2335L6.47564 20.1194L6.45695 20.0051L6.43943 19.8906L6.42308 19.7758L6.40791 19.6608L6.39392 19.5455L6.38112 19.4301L6.3695 19.3145L6.35907 19.1986L6.34984 19.0826L6.3418 18.9666L6.33495 18.8502L6.32931 18.7338L6.32486 18.6174L6.32163 18.5007L6.31959 18.384L6.31875 18.2671L6.31914 18.1502L6.32072 18.0332L6.32353 17.9163L6.32753 17.7992L6.33276 17.6821L6.3392 17.565L6.34685 17.4479L6.35572 17.3308L6.3658 17.2137L6.3771 17.0967L6.38963 16.9797L6.40336 16.8628L6.41831 16.7459L6.43448 16.6291L6.45187 16.5124L6.47048 16.3958L6.49029 16.2793L6.51133 16.163L6.53359 16.0467L6.55706 15.9307L6.58173 15.8148L6.60763 15.6991L6.63474 15.5836L6.66305 15.4682L6.69257 15.3531L6.7233 15.2382L6.75524 15.1235L6.78838 15.0092L6.82272 14.895L6.85826 14.7811L6.89501 14.6675L6.93294 14.5542L6.97207 14.4412L7.01239 14.3285L7.0539 14.2162L7.09659 14.1042L7.14046 13.9925L7.18551 13.8812L7.23174 13.7703L7.27914 13.6599L7.32771 13.5497L7.37746 13.44L7.42835 13.3307L7.48041 13.2219L7.53362 13.1135L7.58798 13.0056L7.64349 12.8981L7.70014 12.7912L7.75792 12.6846L7.81685 12.5787L7.8769 12.4732L7.93807 12.3682L8.00036 12.2639L8.06377 12.16L8.12828 12.0568L8.19391 11.954L8.26061 11.8519L8.32846 11.7504L8.39728 11.6495L8.46733 11.5492L8.53836 11.4495L8.61044 11.3504L8.68367 11.2521L8.75788 11.1543L8.83323 11.0572L8.90955 10.9608L8.98694 10.8652L9.06531 10.7702L9.14473 10.6759L9.22522 10.5824L9.30668 10.4896L9.38912 10.3975L9.47263 10.3062L9.55703 10.2157L9.64249 10.1259L9.72893 10.0369L9.81626 9.94877L9.90458 9.86136L9.99387 9.77477L10.0841 9.68907L10.1753 9.60409L10.2674 9.52009L10.3604 9.43682L10.4544 9.35451L10.5491 9.27302L10.6448 9.19242L10.7415 9.11271L10.8389 9.0339L10.9373 8.95597L11.0365 8.87902L11.1366 8.80295L11.2374 8.72786L11.3392 8.65366L11.4417 8.58043L11.545 8.50817L11.6492 8.43689L11.7542 8.36658L11.8599 8.29732L11.9665 8.22895L12.0737 8.16163L12.1817 8.09532L12.2905 8.03003L12.4 7.96576L12.5102 7.90252L12.6212 7.84033L12.7328 7.77918L12.8451 7.7191L12.9581 7.66008L13.0718 7.60213L13.1861 7.54525L13.3011 7.48946L13.4168 7.43477L13.533 7.38118L13.6499 7.32868L13.7674 7.2773L13.8855 7.22705L14.0041 7.17792L14.1233 7.12991L14.2431 7.08305L14.3634 7.03733L14.4843 6.99276L14.6057 6.94935L14.7276 6.9071L14.85 6.86602L14.9729 6.82611L15.0962 6.78738L15.2201 6.74982L15.3443 6.71346L15.4691 6.6783L15.5942 6.64432L15.7198 6.61156L15.8458 6.58L15.9722 6.54965L16.0989 6.52053L16.226 6.49262L16.3535 6.46593L16.4812 6.44048L16.6094 6.41627L16.7379 6.39329L16.8666 6.37155L16.9957 6.35105L17.125 6.3318L17.2546 6.31381L17.3844 6.29707L17.4329 6.2913ZM17.4877 10.8836L17.4503 7.75336L17.3439 7.76814L17.2295 7.78517L17.115 7.80334L17.0013 7.82255L16.8873 7.84293L16.774 7.86435L16.6609 7.88688L16.5482 7.91046L16.4357 7.93516L16.3235 7.96095L16.2117 7.98781L16.1003 8.01572L15.989 8.04475L15.882 8.07374L15.7681 8.1059L15.6581 8.13806L15.5486 8.17127L15.4397 8.20546L15.331 8.24078L15.2227 8.27715L15.1149 8.31449L15.0076 8.35281L14.9008 8.39226L14.7945 8.4326L14.6885 8.47407L14.5834 8.51644L14.4783 8.55994L14.374 8.60433L14.2702 8.64969L14.1671 8.69603L14.0643 8.74341L13.962 8.79177L13.8607 8.84094L13.7595 8.89125L13.6594 8.94236L13.5594 8.99461L13.4604 9.04751L13.3615 9.1017L13.2637 9.15646L13.1665 9.21227L13.0698 9.26905L12.9738 9.32665L12.8783 9.3853L12.7838 9.44459L12.6897 9.50494L12.5965 9.5661L12.5039 9.62807L12.412 9.69101L12.3207 9.75484L12.2304 9.81924L12.1406 9.88477L12.0516 9.95104L11.9634 10.0181L11.8759 10.0859L11.7891 10.1547L11.7032 10.2241L11.6181 10.2943L11.5336 10.3655L11.4502 10.4372L11.3673 10.5099L11.2853 10.5833L11.2042 10.6573L11.1239 10.7321L11.0443 10.8077L10.9657 10.8839L10.8879 10.9608L10.8109 11.0386L10.7348 11.1169L10.6595 11.1961L10.5852 11.2758L10.5117 11.3561L10.439 11.4372L10.3672 11.519L10.2966 11.6013L10.2266 11.6843L10.1575 11.768L10.0894 11.8521L10.0223 11.9369L9.95595 12.0224L9.89063 12.1084L9.82621 12.195L9.76277 12.2821L9.70022 12.3698L9.63874 12.458L9.57815 12.5468L9.51846 12.6361L9.45974 12.7259L9.40209 12.8162L9.34542 12.907L9.28964 12.9984L9.23484 13.0901L9.1811 13.1824L9.12826 13.2752L9.07656 13.3682L9.02576 13.4618L8.97585 13.5559L8.92717 13.6502L8.87938 13.7451L8.83266 13.8404L8.78691 13.9359L8.74222 14.032L8.69851 14.1283L8.65587 14.225L8.61419 14.3221L8.57367 14.4194L8.53412 14.5171L8.49555 14.6152L8.45803 14.7136L8.42167 14.8121L8.38619 14.9111L8.35194 15.0102L8.31859 15.1097L8.28638 15.2094L8.25515 15.3094L8.22506 15.4095L8.19595 15.5098L8.16798 15.6104L8.14099 15.7112L8.11509 15.8122L8.09026 15.9133L8.0665 16.0147L8.04379 16.1161L8.02214 16.2177L8.00158 16.3195L7.98207 16.4213L7.96362 16.5234L7.94626 16.6254L7.92994 16.7277L7.91472 16.8298L7.90054 16.9322L7.88744 17.0346L7.87541 17.1371L7.86444 17.2395L7.85454 17.3421L7.84571 17.4446L7.83794 17.5471L7.83124 17.6498L7.8256 17.7523L7.82102 17.8548L7.81752 17.9572L7.81506 18.0596L7.81368 18.162L7.81334 18.2644L7.81407 18.3666L7.81585 18.4688L7.81869 18.5709L7.82257 18.6728L7.82752 18.7747L7.8335 18.8764L7.84053 18.9779L7.84861 19.0794L7.85773 19.1807L7.86789 19.2818L7.87908 19.3827L7.89131 19.4835L7.90458 19.5841L7.91886 19.6844L7.93419 19.7846L7.95052 19.8844L7.96788 19.9841L7.98626 20.0835L8.00564 20.1826L8.02605 20.2816L8.04744 20.3802L8.06986 20.4786L8.09325 20.5765L8.11766 20.6743L8.14306 20.7718L8.16944 20.8689L8.19676 20.9656L8.22514 21.0621L8.25442 21.1582L8.28475 21.2539L8.31598 21.3493L8.34819 21.4443L8.38138 21.5388L8.41547 21.633L8.45053 21.7268L8.48658 21.8202L8.52352 21.9131L8.56135 22.0056L8.60017 22.0977L8.63988 22.1894L8.68057 22.2805L8.72208 22.3712L8.76457 22.4614L8.80795 22.5511L8.85215 22.6404L8.89732 22.7291L8.94331 22.8174L8.9902 22.9051L9.03799 22.9923L9.08659 23.079L9.13609 23.1651L9.1864 23.2506L9.23761 23.3356L9.28964 23.4201L9.34248 23.5039L9.39614 23.5872L9.45069 23.67L9.5059 23.7519L9.56208 23.8335L9.61892 23.9144L9.67665 23.9946L9.73512 24.0743L9.79441 24.1532L9.85443 24.2316L9.91526 24.3093L9.97674 24.3864L10.039 24.4628L10.1021 24.5385L10.1658 24.6136L10.2304 24.6879L10.2956 24.7617L10.3615 24.8346L10.4281 24.9069L10.4954 24.9784L10.5634 25.0493L10.632 25.1195L10.7014 25.1889L10.7714 25.2576L10.8421 25.3255L10.9135 25.3928L10.9853 25.4592L11.058 25.525L11.1311 25.5899L11.2049 25.654L11.2794 25.7174L11.3544 25.7801L11.43 25.842L11.5061 25.9029L11.5829 25.9632L11.6602 26.0227L11.7381 26.0814L11.8165 26.1392L11.8954 26.1963L11.9748 26.2525L12.0548 26.3079L12.1353 26.3625L12.2163 26.4163L12.2978 26.4692L12.3797 26.5213L12.4622 26.5725L12.545 26.6229L12.6284 26.6725L12.7122 26.7212L12.7964 26.769L12.8811 26.816L12.966 26.862L13.0516 26.9073L13.1375 26.9517L13.2237 26.9951L13.3103 27.0378L13.3974 27.0795L13.4848 27.1205L13.5724 27.1604L13.6606 27.1995L13.7489 27.2377L13.8376 27.2749L13.9267 27.3114L14.016 27.3469L14.1056 27.3815L14.1955 27.4151L14.2857 27.448L14.3761 27.4799L14.4668 27.5108L14.5578 27.541L14.649 27.57L14.7404 27.5983L14.8321 27.6256L14.9239 27.652L15.0159 27.6775L15.1081 27.7021L15.2005 27.7258L15.293 27.7485L15.3858 27.7703L15.4786 27.7912L15.5717 27.8112L15.6648 27.8302L15.758 27.8483L15.8515 27.8655L15.9448 27.8817L16.0384 27.8971L16.1321 27.9115L16.2258 27.925L16.3195 27.9376L16.4133 27.9492L16.5072 27.9599L16.601 27.9697L16.695 27.9785L16.7889 27.9865L16.8829 27.9934L16.9768 27.9996L17.0707 28.0047L17.1645 28.009L17.2585 28.0123L17.3522 28.0147L17.4459 28.0162L17.5396 28.0168L17.6332 28.0164L17.7268 28.0152L17.8202 28.013L17.9135 28.01L18.0068 28.006L18.0998 28.0011L18.1928 27.9953L18.2856 27.9886L18.3783 27.981L18.4708 27.9725L18.5632 27.9631L18.6554 27.9528L18.7474 27.9416L18.8392 27.9295L18.9308 27.9167L19.0222 27.9028L19.1134 27.8881L19.2042 27.8725L19.295 27.856L19.3854 27.8386L19.4756 27.8205L19.5656 27.8014L19.6552 27.7815L19.7445 27.7607L19.8336 27.739L19.9224 27.7166L20.0109 27.6932L20.099 27.669L20.1868 27.644L20.2743 27.6181L20.3614 27.5915L20.4482 27.564L20.5347 27.5356L20.6208 27.5064L20.7065 27.4765L20.7918 27.4457L20.8766 27.4141L20.9611 27.3817L21.0452 27.3485L21.1289 27.3145L21.2122 27.2797L21.295 27.2441L21.3774 27.2079L21.4593 27.1708L21.5408 27.1328L21.6219 27.0942L21.7023 27.0549L21.7825 27.0147L21.862 26.9738L21.9412 26.9321L22.0197 26.8898L22.0978 26.8467L22.1754 26.8029L22.2524 26.7584L22.329 26.7131L22.405 26.6671L22.4803 26.6205L22.5553 26.5731L22.6295 26.5251L22.7033 26.4764L22.7767 26.4269L22.8492 26.3768L22.9212 26.3262L22.9928 26.2747L23.0635 26.2228L23.1338 26.17L23.2036 26.1166L23.2724 26.0628L23.341 26.0081L23.4088 25.9528L23.4757 25.8971L23.5425 25.8405L23.6083 25.7835L23.6734 25.726L23.7382 25.6676L23.8019 25.609L23.8652 25.5496L23.9278 25.4897L23.9897 25.4292L24.0509 25.3682L24.1115 25.3066L24.1713 25.2445L24.2304 25.1818L24.2888 25.1187L24.3467 25.055L24.4036 24.9909L24.46 24.9261L24.5155 24.861L24.5703 24.7954L24.6246 24.7291L24.6779 24.6627L24.7306 24.5955L24.7825 24.528L24.8337 24.46L24.8841 24.3916L24.9337 24.3229L24.9827 24.2535L25.0308 24.1839L25.0782 24.1139L25.1249 24.0433L25.1706 23.9726L25.2158 23.9013L25.2601 23.8296L25.3036 23.7577L25.3462 23.6854L25.3883 23.6125L25.4293 23.5397L25.4698 23.4662L25.5093 23.3925L25.548 23.3186L25.5861 23.244L25.6231 23.1697L25.6595 23.0945L25.6949 23.0196L25.7298 22.9438L25.7636 22.8683L25.7968 22.792L25.8291 22.7159L25.8605 22.6394L25.8911 22.5626L25.921 22.4856L25.9498 22.4086L25.9781 22.331L26.0054 22.2534L26.0319 22.1757L26.0576 22.0977L26.0824 22.0194L26.1065 21.9411L26.1297 21.8627L26.152 21.7839L26.1734 21.7052L26.1942 21.6262L26.214 21.5471L26.233 21.4681L26.2512 21.3886L26.2684 21.3092L26.285 21.2298L26.3006 21.1503L26.3154 21.0707L26.3294 20.9907L26.3425 20.9111L26.3548 20.8312L26.3662 20.7513L26.3768 20.6715L26.3866 20.5915L26.3956 20.5113L26.4037 20.4317L26.411 20.3514L26.4174 20.2715L26.423 20.1917L26.4278 20.1117L26.4317 20.0318L26.4348 19.952L26.4371 19.872L26.4385 19.7924L26.4391 19.7125L26.4389 19.6329L26.4379 19.5533L26.436 19.474L26.4333 19.3945L26.4298 19.3152L26.4255 19.2362L26.4204 19.157L26.4144 19.078L26.4077 18.9995L26.4001 18.9206L26.3917 18.8423L26.3825 18.7638L26.3726 18.6857L26.3618 18.6077L26.3502 18.5298L26.3378 18.4522L26.3247 18.3748L26.3108 18.2976L26.296 18.2207L26.2804 18.1436L26.2641 18.0672L26.2471 17.9909L26.2292 17.9148L26.2106 17.8388L26.1912 17.7635L26.171 17.6879L26.1501 17.613L26.1284 17.5381L26.106 17.4638L26.0828 17.3895L26.0589 17.3155L26.0342 17.2421L26.0089 17.1688L25.9826 17.0957L25.9559 17.0232L25.9282 16.9508L25.8999 16.879L25.8709 16.8073L25.8411 16.7359L25.8107 16.6652L25.7795 16.5946L25.7477 16.5245L25.7152 16.4548L25.6819 16.3853L25.6479 16.3162L25.6134 16.2478L25.578 16.1795L25.5421 16.1119L25.5055 16.0446L25.4682 15.9775L25.4303 15.9111L25.3917 15.845L25.3524 15.7795L25.3125 15.7142L25.2721 15.6497L25.2309 15.5853L25.1892 15.5216L25.1468 15.4583L25.1038 15.3955L25.0601 15.3331L25.0159 15.2713L24.9712 15.21L24.9257 15.149L24.8798 15.0888L24.8332 15.0289L24.7862 14.9697L24.7384 14.9108L24.6901 14.8526L24.6413 14.7948L24.5919 14.7375L24.5421 14.681L24.4916 14.6248L24.4407 14.5693L24.3891 14.5142L24.3373 14.4599L24.2846 14.4059L24.2317 14.3527L24.178 14.2998L24.124 14.2477L24.0696 14.1962L24.0147 14.1452L23.9592 14.0947L23.9032 14.0449L23.8469 13.9958L23.7899 13.947L23.7329 13.8992L23.675 13.8517L23.6169 13.8049L23.5584 13.7588L23.4993 13.7132L23.44 13.6683L23.3803 13.6241L23.32 13.5804L23.2592 13.5372L23.1985 13.495L23.1369 13.4531L23.0754 13.4122L23.0134 13.3717L22.9509 13.3319L22.8881 13.2927L22.8251 13.2543L22.7615 13.2163L22.6978 13.1792L22.6335 13.1426L22.5694 13.1069L22.5046 13.0718L22.4395 13.0372L22.3742 13.0033L22.3087 12.9703L22.2429 12.9377L22.1766 12.9059L22.1103 12.8748L22.0439 12.8444L21.9767 12.8145L21.9098 12.7855L21.8425 12.7571L21.7748 12.7293L21.707 12.7024L21.6392 12.6761L21.571 12.6505L21.5024 12.6255L21.434 12.6014L21.3652 12.5778L21.2962 12.5549L21.2273 12.5328L21.1581 12.5114L21.0888 12.4907L21.019 12.4706L20.9495 12.4513L20.8797 12.4327L20.8099 12.4148L20.7399 12.3975L20.6696 12.381L20.5995 12.3652L20.5293 12.3502L20.4589 12.3357L20.3883 12.322L20.3181 12.3091L20.2474 12.2968L20.1768 12.2852L20.106 12.2743L20.0355 12.2641L19.9645 12.2546L19.8939 12.2459L19.8232 12.2378L19.7524 12.2304L19.6817 12.2238L19.6108 12.2178L19.5403 12.2125L19.4693 12.208L19.3987 12.2041L19.3283 12.2009L19.2573 12.1984L19.1869 12.1967L19.1165 12.1956L19.0461 12.1952L18.998 12.1954L19.0344 15.2536L19.0562 15.2537L19.0967 15.2543L19.1372 15.2552L19.1778 15.2565L19.2184 15.2584L19.2591 15.2606L19.2998 15.2632L19.3406 15.2663L19.3813 15.2697L19.4222 15.2736L19.463 15.2779L19.5039 15.2826L19.5448 15.2878L19.5857 15.2934L19.6266 15.2994L19.6676 15.3059L19.7085 15.3128L19.7494 15.32L19.7903 15.3278L19.8311 15.3359L19.872 15.3446L19.9129 15.3536L19.9537 15.3631L19.9944 15.3729L20.0352 15.3832L20.0759 15.394L20.1165 15.4052L20.1571 15.4168L20.1976 15.4288L20.2381 15.4413L20.2784 15.4543L20.3188 15.4676L20.359 15.4814L20.3992 15.4956L20.4392 15.5102L20.4792 15.5253L20.5191 15.5408L20.5589 15.5567L20.5985 15.5731L20.638 15.5899L20.6775 15.6071L20.7168 15.6248L20.756 15.6429L20.7951 15.6614L20.834 15.6803L20.8728 15.6996L20.9114 15.7195L20.9499 15.7397L20.9882 15.7603L21.0264 15.7814L21.0644 15.8028L21.1022 15.8247L21.1398 15.847L21.1773 15.8697L21.2146 15.8929L21.2517 15.9165L21.2885 15.9404L21.3252 15.9648L21.3618 15.9896L21.398 16.0148L21.4341 16.0404L21.47 16.0664L21.5056 16.0928L21.541 16.1196L21.5761 16.1469L21.6111 16.1745L21.6458 16.2025L21.6802 16.2309L21.7144 16.2597L21.7484 16.2889L21.782 16.3184L21.8155 16.3484L21.8486 16.3788L21.8814 16.4095L21.914 16.4406L21.9464 16.4721L21.9783 16.5039L22.01 16.5362L22.0415 16.5687L22.0726 16.6017L22.1034 16.6351L22.1339 16.6688L22.1642 16.7028L22.194 16.7372L22.2235 16.772L22.2528 16.8071L22.2817 16.8425L22.3102 16.8783L22.3384 16.9145L22.3663 16.951L22.3939 16.9878L22.421 17.025L22.4478 17.0624L22.4743 17.1002L22.5004 17.1384L22.5261 17.1768L22.5514 17.2156L22.5765 17.2547L22.601 17.2941L22.6252 17.3338L22.649 17.3738L22.6724 17.414L22.6955 17.4546L22.7181 17.4955L22.7404 17.5367L22.7622 17.5781L22.7836 17.6199L22.8046 17.6618L22.8252 17.7041L22.8453 17.7467L22.8651 17.7895L22.8844 17.8326L22.9033 17.8759L22.9217 17.9195L22.9398 17.9633L22.9573 18.0074L22.9744 18.0517L22.9911 18.0963L23.0074 18.141L23.0231 18.1861L23.0384 18.2313L23.0533 18.2767L23.0676 18.3224L23.0816 18.3683L23.095 18.4144L23.108 18.4607L23.1205 18.5071L23.1326 18.5538L23.1441 18.6007L23.1552 18.6477L23.1658 18.6949L23.1759 18.7423L23.1855 18.7899L23.1946 18.8375L23.2032 18.8855L23.2114 18.9335L23.219 18.9816L23.2261 19.03L23.2327 19.0784L23.2389 19.127L23.2445 19.1758L23.2496 19.2247L23.2542 19.2736L23.2583 19.3227L23.2619 19.3719L23.2649 19.4212L23.2674 19.4706L23.2694 19.5201L23.2709 19.5697L23.2718 19.6193L23.2723 19.669L23.2721 19.7188L23.2716 19.7687L23.2704 19.8187L23.2687 19.8686L23.2665 19.9187L23.2637 19.9688L23.2605 20.0189L23.2566 20.069L23.2522 20.1193L23.2473 20.1695L23.242 20.2197L23.2359 20.2699L23.2294 20.3202L23.2224 20.3705L23.2148 20.4208L23.2066 20.471L23.1979 20.5212L23.1887 20.5714L23.1789 20.6217L23.1686 20.6718L23.1577 20.7219L23.1463 20.772L23.1344 20.8221L23.1218 20.8721L23.1088 20.922L23.0953 20.9718L23.0811 21.0217L23.0664 21.0713L23.0511 21.121L23.0354 21.1706L23.0191 21.22L23.0022 21.2694L22.9848 21.3186L22.9668 21.3677L22.9483 21.4168L22.9293 21.4657L22.9097 21.5145L22.8896 21.5631L22.869 21.6116L22.8478 21.66L22.826 21.7083L22.8037 21.7563L22.7809 21.8042L22.7575 21.852L22.7337 21.8995L22.7092 21.9469L22.6843 21.9941L22.6587 22.0411L22.6327 22.0879L22.6062 22.1346L22.5792 22.181L22.5515 22.2273L22.5235 22.2732L22.4948 22.319L22.4656 22.3646L22.436 22.4098L22.4057 22.455L22.375 22.4998L22.3438 22.5444L22.3121 22.5887L22.2798 22.6328L22.2471 22.6766L22.2138 22.7201L22.1801 22.7634L22.1458 22.8064L22.1111 22.8491L22.0759 22.8914L22.0401 22.9335L22.0039 22.9753L21.9672 23.0168L21.93 23.058L21.8923 23.0989L21.8541 23.1394L21.8156 23.1796L21.7764 23.2195L21.7369 23.259L21.6968 23.2982L21.6564 23.337L21.6154 23.3755L21.5739 23.4136L21.5321 23.4513L21.4898 23.4888L21.4471 23.5258L21.4038 23.5624L21.3602 23.5986L21.3161 23.6345L21.2716 23.67L21.2266 23.705L21.1813 23.7396L21.1355 23.7739L21.0893 23.8078L21.0427 23.8411L20.9957 23.8741L20.9483 23.9067L20.9005 23.9388L20.8523 23.9706L20.8037 24.0018L20.7546 24.0326L20.7052 24.063L20.6555 24.0929L20.6053 24.1223L20.5549 24.1513L20.504 24.1798L20.4527 24.2078L20.4011 24.2355L20.3492 24.2625L20.2969 24.2892L20.2443 24.3153L20.1913 24.3409L20.138 24.366L20.0843 24.3907L20.0304 24.4148L19.9761 24.4384L19.9216 24.4615L19.8667 24.4841L19.8115 24.5062L19.756 24.5277L19.7002 24.5488L19.6441 24.5693L19.5877 24.5893L19.5311 24.6087L19.4742 24.6276L19.4171 24.646L19.3596 24.6637L19.302 24.681L19.244 24.6978L19.1859 24.7139L19.1275 24.7295L19.0689 24.7445L19.01 24.759L18.9509 24.7728L18.8916 24.7862L18.832 24.7989L18.7724 24.8112L18.7124 24.8227L18.6523 24.8338L18.5921 24.8442L18.5315 24.8541L18.471 24.8633L18.4101 24.872L18.3492 24.8801L18.2881 24.8876L18.2268 24.8945L18.1654 24.9008L18.1038 24.9065L18.0422 24.9115L17.9804 24.9161L17.9184 24.9199L17.8564 24.9232L17.7943 24.9259L17.7321 24.9279L17.6697 24.9293L17.6073 24.9301L17.5448 24.9303L17.4823 24.9299L17.4197 24.9289L17.357 24.9272L17.2943 24.9249L17.2315 24.922L17.1686 24.9184L17.1057 24.9143L17.0428 24.9095L16.98 24.9041L16.917 24.898L16.8542 24.8914L16.7912 24.884L16.7283 24.876L16.6654 24.8675L16.6025 24.8583L16.5396 24.8484L16.4768 24.838L16.414 24.8269L16.3513 24.8151L16.2886 24.8028L16.226 24.7898L16.1635 24.7762L16.101 24.7618L16.0386 24.7469L15.9762 24.7315L15.914 24.7153L15.852 24.6984L15.7899 24.681L15.7281 24.6629L15.6663 24.6442L15.6046 24.6248L15.5431 24.6049L15.4817 24.5843L15.4206 24.5631L15.3595 24.5413L15.2986 24.5187L15.2379 24.4956L15.1773 24.4719L15.117 24.4475L15.0568 24.4226L14.9969 24.397L14.9371 24.3707L14.8775 24.3439L14.8182 24.3165L14.759 24.2884L14.7001 24.2597L14.6415 24.2304L14.5831 24.2005L14.525 24.1699L14.4671 24.1388L14.4094 24.1071L14.3521 24.0747L14.2949 24.0418L14.2382 24.0082L14.1817 23.9741L14.1255 23.9394L14.0695 23.9041L14.0139 23.8682L13.9586 23.8316L13.9037 23.7945L13.8491 23.7569L13.7948 23.7186L13.7408 23.6798L13.6872 23.6404L13.634 23.6005L13.5811 23.56L13.5286 23.5188L13.4765 23.4772L13.4247 23.435L13.3734 23.3922L13.3224 23.3489L13.2718 23.305L13.2217 23.2606L13.172 23.2156L13.1226 23.1701L13.0737 23.1241L13.0253 23.0775L12.9771 23.0304L12.9296 22.9828L12.8825 22.9347L12.8357 22.886L12.7895 22.8369L12.7438 22.7872L12.6985 22.737L12.6536 22.6864L12.6094 22.6352L12.5655 22.5836L12.5221 22.5314L12.4793 22.4788L12.437 22.4257L12.3951 22.3722L12.3538 22.3182L12.313 22.2636L12.2728 22.2087L12.2331 22.1533L12.1939 22.0974L12.1552 22.0411L12.1172 21.9844L12.0796 21.9272L12.0427 21.8696L12.0063 21.8116L11.9705 21.7532L11.9351 21.6943L11.9005 21.6351L11.8664 21.5754L11.8329 21.5154L11.7999 21.455L11.7677 21.3941L11.7359 21.3329L11.7048 21.2713L11.6743 21.2094L11.6444 21.1471L11.6152 21.0844L11.5865 21.0214L11.5586 20.9581L11.5312 20.8943L11.5044 20.8303L11.4783 20.7659L11.4529 20.7013L11.4281 20.6362L11.404 20.571L11.3806 20.5053L11.3577 20.4395L11.3355 20.3733L11.3141 20.3068L11.2933 20.24L11.2732 20.1731L11.2537 20.1057L11.2349 20.0382L11.2169 19.9704L11.1994 19.9023L11.1828 19.8341L11.1668 19.7656L11.1515 19.6968L11.1369 19.6279L11.123 19.5587L11.1098 19.4894L11.0973 19.4198L11.0856 19.35L11.0746 19.2801L11.0642 19.21L11.0546 19.1398L11.0458 19.0693L11.0377 18.9987L11.0302 18.9279L11.0235 18.8571L11.0176 18.786L11.0124 18.7149L11.0079 18.6436L11.0041 18.5722L11.0011 18.5008L10.9988 18.4292L10.9974 18.3575L10.9966 18.2858L10.9966 18.214L10.9973 18.142L10.9988 18.0701L11.001 17.9981L11.0041 17.926L11.0078 17.8539L11.0123 17.7818L11.0175 17.7096L11.0235 17.6374L11.0303 17.5653L11.0378 17.4931L11.0461 17.4209L11.0552 17.3487L11.065 17.2766L11.0756 17.2045L11.0869 17.1325L11.0991 17.0604L11.1119 16.9884L11.1255 16.9165L11.1399 16.8446L11.1551 16.7729L11.171 16.7012L11.1876 16.6296L11.2051 16.5581L11.2233 16.4867L11.2423 16.4154L11.262 16.3443L11.2825 16.2732L11.3037 16.2023L11.3257 16.1316L11.3484 16.0609L11.3719 15.9904L11.3962 15.9202L11.4212 15.8501L11.447 15.7802L11.4735 15.7104L11.5008 15.6409L11.5289 15.5716L11.5577 15.5024L11.5872 15.4335L11.6174 15.3648L11.6485 15.2964L11.6802 15.2282L11.7128 15.1602L11.746 15.0926L11.78 15.0251L11.8146 14.958L11.8501 14.8911L11.8862 14.8245L11.9232 14.7583L11.9608 14.6923L11.9991 14.6266L12.0381 14.5613L12.0779 14.4962L12.1184 14.4315L12.1596 14.3672L12.2016 14.3031L12.2441 14.2394L12.2874 14.1762L12.3315 14.1132L12.3761 14.0507L12.4216 13.9886L12.4676 13.9268L12.5144 13.8654L12.5618 13.8044L12.6099 13.7439L12.6588 13.6837L12.7083 13.624L12.7584 13.5648L12.8092 13.5059L12.8606 13.4475L12.9127 13.3895L12.9655 13.332L13.0189 13.2751L13.073 13.2185L13.1277 13.1625L13.183 13.1069L13.2389 13.0518L13.2955 12.9972L13.3527 12.9432L13.4105 12.8897L13.4689 12.8366L13.5278 12.7841L13.5874 12.7321L13.6477 12.6807L13.7084 12.6298L13.7698 12.5795L13.8317 12.5297L13.8943 12.4805L13.9573 12.4319L14.021 12.3839L14.0852 12.3364L14.1499 12.2895L14.2152 12.2432L14.2811 12.1975L14.3474 12.1524L14.4144 12.108L14.4817 12.0641L14.5497 12.021L14.6182 11.9783L14.6871 11.9364L14.7565 11.8951L14.8264 11.8544L14.8969 11.8144L14.9678 11.775L15.0391 11.7363L15.1109 11.6983L15.1832 11.661L15.2559 11.6243L15.3291 11.5883L15.4027 11.553L15.4768 11.5184L15.5512 11.4845L15.6261 11.4512L15.7013 11.4188L15.7771 11.3869L15.8532 11.3558L15.9296 11.3255L16.0065 11.2959L16.0837 11.267L16.1613 11.2388L16.2392 11.2114L16.3176 11.1847L16.3962 11.1587L16.4752 11.1335L16.5545 11.1091L16.6341 11.0854L16.7141 11.0625L16.7943 11.0404L16.8749 11.019L16.9557 10.9983L17.0368 10.9785L17.1182 10.9595L17.1999 10.9412L17.2818 10.9237L17.364 10.9071L17.4463 10.8912L17.4877 10.8836ZM18.5004 16.7648L17.5605 16.9879L17.5053 12.3629L17.461 12.3728L17.3943 12.3884L17.3277 12.4047L17.2616 12.4215L17.1955 12.439L17.1299 12.4572L17.0642 12.476L16.9992 12.4953L16.9341 12.5154L16.8697 12.5359L16.8052 12.5572L16.7411 12.5791L16.6774 12.6015L16.6138 12.6245L16.5509 12.6481L16.488 12.6724L16.4255 12.6972L16.3633 12.7225L16.3013 12.7486L16.24 12.775L16.1788 12.8022L16.1181 12.8299L16.0575 12.8582L15.9975 12.887L15.9377 12.9164L15.8785 12.9463L15.8195 12.9767L15.7609 13.0078L15.7028 13.0393L15.645 13.0713L15.5876 13.104L15.5308 13.137L15.474 13.1708L15.4179 13.2049L15.3623 13.2396L15.307 13.2748L15.252 13.3105L15.1976 13.3467L15.1436 13.3834L15.0901 13.4205L15.0371 13.4581L14.9843 13.4962L14.9321 13.5349L14.8804 13.5739L14.8291 13.6134L14.7784 13.6533L14.7282 13.6937L14.6783 13.7346L14.6288 13.776L14.5801 13.8176L14.5317 13.8599L14.4839 13.9024L14.4365 13.9454L14.3896 13.9889L14.3433 14.0327L14.2974 14.0769L14.252 14.1216L14.2073 14.1665L14.163 14.212L14.1193 14.2577L14.0759 14.304L14.0332 14.3504L13.9911 14.3973L13.9494 14.4446L13.9084 14.4921L13.8678 14.5401L13.8279 14.5882L13.7884 14.637L13.7495 14.6859L13.7111 14.7352L13.6734 14.7848L13.6362 14.8347L13.5995 14.8848L13.5635 14.9353L13.5279 14.9861L13.4929 15.0372L13.4586 15.0886L13.4248 15.1401L13.3916 15.192L13.3589 15.2442L13.327 15.2966L13.2954 15.3494L13.2646 15.4021L13.2343 15.4553L13.2045 15.5087L13.1755 15.5623L13.1469 15.616L13.119 15.6701L13.0916 15.7244L13.065 15.7787L13.0388 15.8335L13.0133 15.8882L12.9884 15.9432L12.964 15.9984L12.9403 16.0538L12.9172 16.1092L12.8947 16.1649L12.8728 16.2207L12.8515 16.2767L12.8308 16.3327L12.8108 16.389L12.7913 16.4454L12.7725 16.5018L12.7542 16.5584L12.7366 16.6152L12.7195 16.6719L12.7032 16.7287L12.6874 16.7858L12.6722 16.8429L12.6576 16.9L12.6437 16.9572L12.6303 17.0144L12.6176 17.0718L12.6055 17.1292L12.594 17.1866L12.5831 17.244L12.5728 17.3016L12.5632 17.359L12.5542 17.4165L12.5457 17.4742L12.5379 17.5316L12.5307 17.5893L12.5241 17.6468L12.518 17.7043L12.5127 17.762L12.5078 17.8195L12.5037 17.877L12.5001 17.9345L12.4971 17.9918L12.4947 18.0492L12.4929 18.1065L12.4918 18.1638L12.4911 18.221L12.4912 18.2781L12.4918 18.3351L12.493 18.3922L12.4948 18.449L12.4972 18.5058L12.5001 18.5625L12.5037 18.6191L12.5078 18.6755L12.5126 18.7319L12.5179 18.7881L12.5237 18.8443L12.5302 18.9001L12.5372 18.9561L12.5448 19.0117L12.553 19.0673L12.5617 19.1227L12.571 19.1779L12.5809 19.2331L12.5913 19.2879L12.6024 19.3427L12.6139 19.3971L12.626 19.4515L12.6386 19.5057L12.6519 19.5597L12.6656 19.6133L12.6799 19.667L12.6947 19.7202L12.71 19.7735L12.7259 19.8263L12.7423 19.879L12.7592 19.9314L12.7767 19.9835L12.7947 20.0356L12.8132 20.0873L12.8322 20.1386L12.8517 20.1899L12.8718 20.2409L12.8923 20.2915L12.9134 20.3419L12.9348 20.3919L12.9569 20.4418L12.9794 20.4914L13.0024 20.5407L13.0259 20.5896L13.0498 20.6382L13.0743 20.6867L13.0991 20.7347L13.1245 20.7824L13.1503 20.8298L13.1767 20.8769L13.2034 20.9237L13.2306 20.9702L13.2582 21.0162L13.2864 21.0621L13.3148 21.1075L13.3438 21.1526L13.3732 21.1974L13.403 21.2418L13.4332 21.2859L13.4638 21.3294L13.4949 21.3728L13.5263 21.4158L13.5582 21.4583L13.5905 21.5006L13.6231 21.5424L13.6562 21.5838L13.6896 21.6248L13.7234 21.6656L13.7575 21.7058L13.7922 21.7457L13.8271 21.7852L13.8623 21.8243L13.8981 21.863L13.934 21.9011L13.9704 21.9391L14.0071 21.9766L14.044 22.0136L14.0814 22.0502L14.1191 22.0864L14.1571 22.1222L14.1954 22.1575L14.2341 22.1924L14.2731 22.2269L14.3123 22.261L14.3518 22.2946L14.3916 22.3278L14.4318 22.3605L14.4722 22.3928L14.513 22.4247L14.5538 22.456L14.5951 22.487L14.6366 22.5175L14.6783 22.5476L14.7203 22.5771L14.7626 22.6063L14.8051 22.635L14.8478 22.6632L14.8907 22.6909L14.9338 22.7182L14.9774 22.745L15.0209 22.7713L15.0647 22.7972L15.1088 22.8227L15.1529 22.8475L15.1973 22.872L15.2421 22.896L15.2868 22.9195L15.3318 22.9425L15.3769 22.9651L15.4223 22.9872L15.4676 23.0087L15.5134 23.0299L15.5591 23.0505L15.605 23.0706L15.6511 23.0903L15.6973 23.1095L15.7436 23.1282L15.7901 23.1464L15.8366 23.1641L15.8834 23.1813L15.9301 23.1981L15.9771 23.2144L16.024 23.2301L16.0711 23.2454L16.1183 23.2602L16.1656 23.2746L16.2129 23.2883L16.2603 23.3017L16.3078 23.3145L16.3553 23.3269L16.4029 23.3387L16.4505 23.3502L16.4981 23.361L16.5458 23.3714L16.5936 23.3813L16.6414 23.3907L16.6892 23.3997L16.737 23.4082L16.7848 23.4162L16.8327 23.4236L16.8806 23.4307L16.9283 23.4372L16.9761 23.4431L17.0239 23.4487L17.0718 23.4538L17.1196 23.4584L17.1674 23.4625L17.2151 23.4662L17.2627 23.4693L17.3104 23.472L17.3579 23.4742L17.4054 23.476L17.453 23.4772L17.5003 23.478L17.5476 23.4783L17.5949 23.4781L17.642 23.4776L17.6893 23.4764L17.7363 23.4749L17.7831 23.473L17.8299 23.4704L17.8768 23.4675L17.9233 23.4641L17.9699 23.4603L18.0162 23.456L18.0625 23.4513L18.1087 23.4461L18.1546 23.4405L18.2006 23.4344L18.2462 23.4278L18.2917 23.4209L18.3373 23.4135L18.3826 23.4056L18.4277 23.3974L18.4727 23.3886L18.5175 23.3795L18.562 23.3699L18.6064 23.36L18.6508 23.3495L18.6949 23.3387L18.7388 23.3275L18.7825 23.3158L18.8259 23.3037L18.8694 23.2912L18.9124 23.2783L18.9552 23.265L18.9981 23.2512L19.0405 23.2372L19.0827 23.2227L19.1247 23.2078L19.1665 23.1925L19.2081 23.1768L19.2495 23.1608L19.2905 23.1443L19.3313 23.1276L19.372 23.1103L19.4124 23.0927L19.4524 23.0748L19.4923 23.0565L19.5319 23.0379L19.5711 23.0188L19.6102 22.9995L19.6489 22.9798L19.6875 22.9597L19.7257 22.9392L19.7636 22.9185L19.8012 22.8974L19.8386 22.876L19.8757 22.8542L19.9124 22.832L19.9489 22.8096L19.9851 22.7868L20.021 22.7638L20.0566 22.7404L20.0918 22.7168L20.1268 22.6927L20.1615 22.6684L20.1957 22.6439L20.2297 22.6189L20.2634 22.5937L20.2968 22.5682L20.3298 22.5425L20.3626 22.5164L20.3949 22.4901L20.4269 22.4636L20.4586 22.4367L20.4899 22.4095L20.5209 22.3821L20.5516 22.3544L20.5819 22.3266L20.6118 22.2985L20.6415 22.27L20.6707 22.2414L20.6997 22.2125L20.7282 22.1834L20.7564 22.154L20.7842 22.1245L20.8117 22.0947L20.8387 22.0648L20.8656 22.0345L20.8919 22.004L20.9178 21.9735L20.9436 21.9425L20.9687 21.9116L20.9937 21.8803L21.0182 21.849L21.0423 21.8174L21.0661 21.7855L21.0894 21.7537L21.1124 21.7215L21.1351 21.6891L21.1572 21.6568L21.1791 21.6241L21.2006 21.5914L21.2216 21.5585L21.2423 21.5254L21.2626 21.4922L21.2825 21.4589L21.3021 21.4254L21.3211 21.3918L21.3399 21.3581L21.3582 21.3241L21.3762 21.2903L21.3937 21.2562L21.4109 21.222L21.4277 21.1877L21.4441 21.1532L21.4601 21.1188L21.4757 21.0842L21.4908 21.0496L21.5057 21.0148L21.52 20.98L21.5341 20.945L21.5477 20.9102L21.561 20.8749L21.5737 20.8401L21.5862 20.8048L21.5982 20.7695L21.6098 20.7343L21.6211 20.699L21.6319 20.6638L21.6424 20.6281L21.6524 20.593L21.6622 20.5573L21.6714 20.5221L21.6803 20.4865L21.6888 20.4508L21.6968 20.4154L21.7045 20.3801L21.7118 20.3443L21.7188 20.3089L21.7253 20.2732L21.7314 20.2379L21.7372 20.2024L21.7426 20.1668L21.7476 20.1313L21.7521 20.0958L21.7564 20.0605L21.7602 20.0252L21.7636 19.9897L21.7667 19.9544L21.7694 19.9191L21.7717 19.8839L21.7736 19.8487L21.7752 19.8136L21.7763 19.7787L21.7772 19.7436L21.7776 19.7085L21.7777 19.6737L21.7774 19.639L21.7767 19.6043L21.7757 19.5697L21.7743 19.535L21.7725 19.5009L21.7704 19.466L21.7679 19.4321L21.7651 19.398L21.7619 19.3637L21.7583 19.3297L21.7545 19.2961L21.7502 19.262L21.7456 19.2286L21.7406 19.195L21.7354 19.1619L21.7297 19.1284L21.7237 19.0952L21.7175 19.0623L21.7109 19.0295L21.7038 18.9966L21.6965 18.9641L21.6889 18.9317L21.6809 18.8994L21.6727 18.8674L21.664 18.8352L21.6552 18.8036L21.6459 18.7717L21.6363 18.7403L21.6265 18.709L21.6163 18.6779L21.6057 18.6468L21.5949 18.6159L21.5839 18.5854L21.5725 18.5551L21.5607 18.5246L21.5487 18.4946L21.5364 18.4645L21.524 18.4351L21.511 18.4054L21.4979 18.3761L21.4845 18.3471L21.4708 18.3181L21.4568 18.2894L21.4426 18.2609L21.4281 18.2326L21.4133 18.2046L21.3982 18.1767L21.383 18.1491L21.3674 18.1216L21.3515 18.0944L21.3355 18.0674L21.3192 18.0407L21.3026 18.014L21.2858 17.9879L21.2687 17.9618L21.2514 17.9359L21.2339 17.9103L21.2162 17.885L21.1982 17.8598L21.18 17.8349L21.1616 17.8103L21.1429 17.7859L21.1241 17.7618L21.105 17.7378L21.0857 17.7142L21.0662 17.6908L21.0466 17.6677L21.0267 17.6447L21.0067 17.6221L20.9864 17.5998L20.9659 17.5777L20.9453 17.5557L20.9245 17.5342L20.9035 17.5129L20.8823 17.4917L20.861 17.471L20.8395 17.4505L20.8178 17.4302L20.7958 17.4101L20.774 17.3905L20.7518 17.3709L20.7295 17.3518L20.707 17.3329L20.6844 17.3143L20.6617 17.2959L20.6389 17.2779L20.6159 17.26L20.5927 17.2425L20.5695 17.2253L20.5461 17.2083L20.5225 17.1916L20.4989 17.1752L20.4752 17.159L20.4514 17.1432L20.4274 17.1277L20.4033 17.1124L20.3792 17.0974L20.3548 17.0826L20.3305 17.0682L20.3061 17.0541L20.2816 17.0403L20.2569 17.0267L20.2323 17.0134L20.2076 17.0003L20.1827 16.9876L20.1579 16.9752L20.1328 16.963L20.1078 16.9512L20.0827 16.9397L20.0576 16.9283L20.0324 16.9173L20.007 16.9065L19.9819 16.8962L19.9565 16.886L19.931 16.8762L19.9057 16.8666L19.8802 16.8573L19.8548 16.8483L19.8293 16.8395L19.8037 16.831L19.7783 16.8229L19.7527 16.815L19.7271 16.8074L19.7016 16.8001L19.6759 16.793L19.6504 16.7863L19.6248 16.7798L19.5992 16.7736L19.5736 16.7677L19.5481 16.762L19.5225 16.7567L19.497 16.7516L19.4715 16.7467L19.4461 16.7422L19.4205 16.7379L19.3952 16.7339L19.3696 16.7302L19.3444 16.7267L19.319 16.7235L19.2937 16.7205L19.2686 16.7179L19.2433 16.7155L19.2182 16.7133L19.193 16.7115L19.168 16.7099L19.143 16.7085L19.118 16.7074L19.0933 16.7066L19.0684 16.706L19.0437 16.7056L19.019 16.7056L18.9945 16.7058L18.9699 16.7062L18.9456 16.7069L18.9212 16.7078L18.897 16.709L18.8727 16.7104L18.8488 16.712L18.8248 16.7139L18.8009 16.7161L18.7772 16.7184L18.7534 16.721L18.7299 16.7239L18.7064 16.7269L18.6831 16.7303L18.6597 16.7338L18.6367 16.7376L18.6136 16.7415L18.5908 16.7457L18.5679 16.7502L18.5453 16.7548L18.5227 16.7597L18.5004 16.7648Z" fill="#636363"/>
</svg>
