<svg width="69" height="35" viewBox="0 0 69 35" fill="none" xmlns="http://www.w3.org/2000/svg">
<path d="M1.78271 20.2426H3.73609V29.7689H1.78271V20.2426Z" fill="#636363"/>
<path d="M4.86881 26.5048C4.86752 25.8206 5.07034 25.1513 5.45162 24.5818C5.83289 24.0122 6.37547 23.5679 7.01071 23.3052C7.6459 23.0425 8.34522 22.9731 9.02013 23.1058C9.69503 23.2385 10.3152 23.5673 10.8021 24.0507C11.289 24.5341 11.6208 25.1503 11.7555 25.8213C11.8902 26.4923 11.8217 27.1879 11.5588 27.8203C11.2958 28.4525 10.8501 28.993 10.2782 29.3733C9.70627 29.7536 9.03378 29.9565 8.34584 29.9565C7.88827 29.9617 7.43435 29.8761 7.01057 29.7045C6.5868 29.533 6.2017 29.279 5.87788 28.9575C5.55405 28.6361 5.29799 28.2535 5.12472 27.8323C4.95145 27.4112 4.86444 26.9598 4.86881 26.5048ZM9.85638 26.5048C9.84873 26.2094 9.75364 25.9228 9.58306 25.681C9.41247 25.439 9.17396 25.2525 8.89732 25.1447C8.62068 25.0369 8.31826 25.0127 8.0279 25.075C7.73747 25.1373 7.472 25.2833 7.26459 25.4949C7.05725 25.7065 6.91721 25.9742 6.862 26.2646C6.80681 26.5549 6.83892 26.855 6.9543 27.1272C7.06973 27.3995 7.26328 27.6319 7.51075 27.7954C7.75829 27.9588 8.04872 28.046 8.34584 28.0461C8.54904 28.0518 8.75128 28.0155 8.93973 27.9395C9.12817 27.8635 9.29876 27.7495 9.44074 27.6047C9.58264 27.4599 9.6929 27.2874 9.7644 27.0981C9.83597 26.9088 9.86728 26.7068 9.85638 26.5048Z" fill="#636363"/>
<path d="M19.6752 23.2409V29.445C19.6752 31.6404 17.9497 32.5665 16.2048 32.5665C15.5912 32.6119 14.9768 32.4885 14.429 32.2097C13.8811 31.931 13.421 31.5078 13.0989 30.9863L14.7788 30.0214C14.9121 30.2886 15.123 30.5099 15.3842 30.6565C15.6454 30.8032 15.9449 30.8685 16.2439 30.8438C16.4405 30.8765 16.6421 30.8637 16.8331 30.8065C17.0241 30.7494 17.1993 30.6494 17.3453 30.5142C17.4912 30.3791 17.604 30.2123 17.675 30.027C17.7459 29.8416 17.7731 29.6425 17.7544 29.445V28.8427C17.5248 29.1238 17.2317 29.347 16.8992 29.4944C16.5666 29.6418 16.2038 29.7092 15.8401 29.6911C14.956 29.6911 14.108 29.3418 13.4828 28.72C12.8576 28.0981 12.5063 27.2547 12.5063 26.3753C12.5063 25.4959 12.8576 24.6526 13.4828 24.0308C14.108 23.409 14.956 23.0596 15.8401 23.0596C16.2036 23.0431 16.5659 23.1112 16.8982 23.2584C17.2306 23.4057 17.5238 23.6281 17.7544 23.908V23.2604L19.6752 23.2409ZM17.7544 26.3753C17.7674 26.0604 17.6854 25.7488 17.5189 25.4805C17.3524 25.2123 17.1091 24.9997 16.8202 24.8701C16.5313 24.7405 16.2099 24.6999 15.8976 24.7533C15.5852 24.8068 15.2961 24.952 15.0674 25.1701C14.8386 25.3883 14.6807 25.6696 14.614 25.9777C14.5471 26.2858 14.5746 26.6069 14.6927 26.8994C14.8108 27.1919 15.0142 27.4426 15.2767 27.6193C15.5392 27.796 15.8488 27.8905 16.1657 27.8908C16.3726 27.9053 16.5802 27.8766 16.7752 27.8065C16.9703 27.7363 17.1484 27.6264 17.2981 27.4836C17.4477 27.3408 17.5657 27.1684 17.6443 26.9775C17.7229 26.7867 17.7604 26.5816 17.7544 26.3753Z" fill="#636363"/>
<path d="M20.8019 26.5048C20.8006 25.8206 21.0035 25.1513 21.3847 24.5818C21.766 24.0122 22.3086 23.5679 22.9438 23.3052C23.579 23.0425 24.2783 22.9731 24.9532 23.1058C25.6281 23.2385 26.2483 23.5673 26.7352 24.0507C27.2221 24.5341 27.5539 25.1503 27.6886 25.8213C27.8233 26.4923 27.7548 27.1879 27.4918 27.8203C27.2289 28.4525 26.7832 28.993 26.2113 29.3733C25.6394 29.7536 24.9669 29.9565 24.2789 29.9565C23.8214 29.9617 23.3674 29.8761 22.9437 29.7045C22.5199 29.533 22.1348 29.279 21.811 28.9575C21.4872 28.6361 21.2311 28.2535 21.0578 27.8323C20.8845 27.4112 20.7975 26.9598 20.8019 26.5048ZM25.7895 26.5048C25.7818 26.2094 25.6867 25.9228 25.5161 25.681C25.3456 25.439 25.107 25.2525 24.8304 25.1447C24.5538 25.0369 24.2514 25.0127 23.961 25.075C23.6706 25.1373 23.4051 25.2833 23.1977 25.4949C22.9903 25.7065 22.8503 25.9742 22.7951 26.2646C22.7399 26.5549 22.772 26.855 22.8874 27.1272C23.0028 27.3995 23.1964 27.6319 23.4438 27.7954C23.6914 27.9588 23.9818 28.046 24.2789 28.0461C24.4811 28.0499 24.6819 28.0123 24.8688 27.9355C25.0557 27.8587 25.2247 27.7445 25.3652 27.5998C25.5057 27.4553 25.6147 27.2833 25.6856 27.0949C25.7563 26.9066 25.7873 26.7056 25.7765 26.5048H25.7895Z" fill="#636363"/>
<path d="M28.6606 21.4925C28.6606 21.2594 28.7301 21.0315 28.8603 20.8377C28.9906 20.6439 29.1757 20.4928 29.3922 20.4036C29.6087 20.3143 29.847 20.291 30.0769 20.3365C30.3068 20.382 30.5179 20.4942 30.6836 20.659C30.8494 20.8239 30.9622 21.0339 31.0079 21.2625C31.0537 21.4912 31.0302 21.7282 30.9406 21.9435C30.8509 22.1589 30.699 22.343 30.5041 22.4725C30.3092 22.602 30.0801 22.6711 29.8457 22.6711C29.5319 22.6695 29.2315 22.5447 29.0096 22.324C28.7877 22.1034 28.6624 21.8046 28.6606 21.4925ZM28.8625 23.241H30.8158V29.7689H28.8625V23.241Z" fill="#636363"/>
<path d="M39.3331 26.505C39.3567 26.9365 39.2944 27.3684 39.1496 27.7759C39.0047 28.1833 38.7803 28.5582 38.4892 28.879C38.1981 29.1999 37.8461 29.4603 37.4534 29.6452C37.0607 29.8302 36.6351 29.9361 36.2012 29.9568C35.8368 29.9741 35.473 29.9119 35.1356 29.7742C34.798 29.6366 34.495 29.427 34.2478 29.1602V32.3982H32.2944V23.2411H34.2478V23.8563C34.495 23.5895 34.798 23.3799 35.1356 23.2423C35.473 23.1046 35.8368 23.0424 36.2012 23.0597C36.6346 23.0804 37.0596 23.1861 37.4518 23.3707C37.8441 23.5553 38.1958 23.8151 38.4868 24.1352C38.7778 24.4553 39.0024 24.8294 39.1476 25.2361C39.2929 25.6428 39.3559 26.074 39.3331 26.505ZM37.3797 26.505C37.372 26.2011 37.2747 25.906 37.1001 25.6565C36.9254 25.407 36.6811 25.2138 36.3972 25.101C36.1133 24.9882 35.8023 24.9607 35.5029 25.0219C35.2035 25.0831 34.9286 25.2304 34.7125 25.4454C34.4963 25.6604 34.3483 25.9337 34.2868 26.2315C34.2252 26.5293 34.2529 26.8386 34.3663 27.1209C34.4797 27.4033 34.6739 27.6464 34.9248 27.82C35.1757 27.9937 35.4723 28.0904 35.7779 28.0981C35.9912 28.1116 36.2049 28.0795 36.4047 28.0041C36.6045 27.9286 36.7857 27.8115 36.9362 27.6606C37.0866 27.5096 37.203 27.3284 37.2772 27.1291C37.3514 26.9299 37.382 26.717 37.3667 26.505H37.3797Z" fill="#636363"/>
<path d="M45.4139 27.8131C45.4139 29.3155 44.1117 29.9566 42.6792 29.9566C42.107 30.007 41.5327 29.8859 41.0302 29.6089C40.5278 29.3319 40.1202 28.9117 39.8599 28.4024L41.5658 27.4375C41.635 27.673 41.7833 27.878 41.9858 28.0181C42.1884 28.1583 42.433 28.2254 42.6792 28.2081C43.1546 28.2081 43.3889 28.0591 43.3889 27.8001C43.3889 27.0813 40.1333 27.4634 40.1333 25.2097C40.1333 23.7849 41.3444 23.0661 42.7378 23.0661C43.252 23.0506 43.761 23.172 44.2121 23.418C44.6632 23.664 45.0399 24.0254 45.3033 24.4649L43.5908 25.3587C43.5152 25.1876 43.3912 25.0421 43.234 24.9398C43.0768 24.8374 42.8932 24.7827 42.7053 24.7822C42.3667 24.7822 42.1583 24.9118 42.1583 25.1514C42.1844 25.8961 45.4139 25.3975 45.4139 27.8131Z" fill="#636363"/>
<path d="M52.6027 23.2407V29.7686H50.6493V29.1599C50.4221 29.4304 50.1337 29.6435 49.8078 29.782C49.4819 29.9205 49.1276 29.9802 48.774 29.9565C47.4718 29.9565 46.3193 29.0174 46.3193 27.2495V23.2407H48.2727V26.9645C48.2555 27.1232 48.2741 27.2837 48.3271 27.4343C48.3801 27.585 48.466 27.722 48.5789 27.8355C48.6917 27.949 48.8286 28.0361 48.9795 28.0904C49.1303 28.1448 49.2915 28.1649 49.4512 28.1496C50.1675 28.1496 50.6689 27.7351 50.6689 26.8091V23.2407H52.6027Z" fill="#636363"/>
<path d="M63.8932 25.7662V29.7684H61.9397V25.9347C61.9397 25.2871 61.6207 24.8596 60.9956 24.8596C60.3706 24.8596 59.9669 25.3194 59.9669 26.0901V29.7684H58.0135V25.9347C58.0135 25.2871 57.7009 24.8596 57.0693 24.8596C56.4378 24.8596 56.0471 25.3194 56.0471 26.0901V29.7684H54.0938V23.2406H56.0471V23.8429C56.2513 23.5769 56.519 23.3659 56.8261 23.229C57.1331 23.0921 57.4697 23.0338 57.8051 23.0593C58.142 23.043 58.4775 23.1138 58.7787 23.2647C59.0799 23.4156 59.3367 23.6416 59.5241 23.9206C59.742 23.6289 60.0307 23.3969 60.3632 23.2463C60.6957 23.0957 61.0611 23.0313 61.4253 23.0593C62.91 23.0593 63.8932 24.1343 63.8932 25.7662Z" fill="#636363"/>
<path d="M65.5601 23.202C66.3656 23.202 67.0186 22.5525 67.0186 21.7513C67.0186 20.9502 66.3656 20.3007 65.5601 20.3007C64.7546 20.3007 64.1016 20.9502 64.1016 21.7513C64.1016 22.5525 64.7546 23.202 65.5601 23.202Z" fill="#636363"/>
<path d="M23.8879 15.3011C27.6602 15.3011 30.7182 12.2595 30.7182 8.50762C30.7182 4.75575 27.6602 1.71423 23.8879 1.71423C20.1157 1.71423 17.0576 4.75575 17.0576 8.50762C17.0576 12.2595 20.1157 15.3011 23.8879 15.3011Z" fill="#636363"/>
<path d="M39.157 15.3011C42.9292 15.3011 45.9872 12.2595 45.9872 8.50762C45.9872 4.75575 42.9292 1.71423 39.157 1.71423C35.3847 1.71423 32.3267 4.75575 32.3267 8.50762C32.3267 12.2595 35.3847 15.3011 39.157 15.3011Z" fill="#636363"/>
<path d="M15.4494 1.71423H1.79541V15.2945H15.4494V1.71423Z" fill="#636363"/>
</svg>
