<svg width="112" height="28" viewBox="0 0 112 28" fill="none" xmlns="http://www.w3.org/2000/svg">
<g clip-path="url(#clip0_10_818)">
<path d="M33.4824 19.3228H41.3507V16.953H36.279V8.02673H33.4824V19.3228Z" fill="#636363"/>
<path d="M46.0121 17.7426C44.8903 17.7426 44.3057 16.7631 44.3057 15.2938C44.3057 13.8246 44.8903 12.8292 46.0121 12.8292C47.1339 12.8292 47.7343 13.8246 47.7343 15.2938C47.7343 16.7631 47.1339 17.7426 46.0121 17.7426ZM46.0279 19.5753C48.6348 19.5753 50.3412 17.7268 50.3412 15.2938C50.3412 12.8608 48.6348 11.0124 46.0279 11.0124C43.4367 11.0124 41.6987 12.8608 41.6987 15.2938C41.6987 17.7268 43.4367 19.5753 46.0279 19.5753Z" fill="#636363"/>
<path d="M54.8542 22.1189C56.055 22.1189 57.1136 21.8503 57.8246 21.2184C58.4724 20.6338 58.899 19.7491 58.899 18.5326V11.2336H56.4342V12.1026H56.4026C55.9286 11.4232 55.2018 10.9966 54.1274 10.9966C52.1209 10.9966 50.7305 12.6713 50.7305 15.0411C50.7305 17.5215 52.4211 18.8802 54.238 18.8802C55.2176 18.8802 55.8338 18.4852 56.3078 17.9481H56.371V18.7538C56.371 19.7333 55.9128 20.3021 54.8226 20.3021C53.9694 20.3021 53.5428 19.9387 53.4006 19.5121H50.9043C51.1571 21.2026 52.6264 22.1189 54.8542 22.1189ZM54.8384 16.9685C53.8746 16.9685 53.2426 16.1786 53.2426 14.9621C53.2426 13.7298 53.8746 12.9399 54.8384 12.9399C55.9128 12.9399 56.4816 13.8562 56.4816 14.9463C56.4816 16.0838 55.9602 16.9685 54.8384 16.9685Z" fill="#636363"/>
<path d="M63.9667 17.7426C62.8449 17.7426 62.2603 16.7631 62.2603 15.2938C62.2603 13.8246 62.8449 12.8292 63.9667 12.8292C65.0885 12.8292 65.6888 13.8246 65.6888 15.2938C65.6888 16.7631 65.0885 17.7426 63.9667 17.7426ZM63.9825 19.5753C66.5894 19.5753 68.2958 17.7268 68.2958 15.2938C68.2958 12.8608 66.5894 11.0124 63.9825 11.0124C61.3913 11.0124 59.6533 12.8608 59.6533 15.2938C59.6533 17.7268 61.3913 19.5753 63.9825 19.5753Z" fill="#636363"/>
<path d="M69.0474 19.3228H71.6227V11.2339H69.0474V19.3228ZM69.0474 10.1122H71.6227V8.02673H69.0474V10.1122Z" fill="#636363"/>
<path d="M72.7407 21.9925H75.3161V18.4852H75.3477C75.8533 19.1646 76.5959 19.5753 77.6387 19.5753C79.7558 19.5753 81.162 17.9007 81.162 15.2781C81.162 12.8451 79.8506 10.9966 77.7019 10.9966C76.5959 10.9966 75.8059 11.4864 75.2529 12.2131H75.2055V11.2336H72.7407V21.9925ZM76.9751 17.5847C75.8691 17.5847 75.2371 16.6842 75.2371 15.3729C75.2371 14.0616 75.8059 13.0663 76.9277 13.0663C78.0337 13.0663 78.555 13.9826 78.555 15.3729C78.555 16.7474 77.9547 17.5847 76.9751 17.5847Z" fill="#636363"/>
<path d="M85.355 19.5753C87.4722 19.5753 89.0364 18.659 89.0364 16.8896C89.0364 14.8199 87.3616 14.4566 85.9396 14.2196C84.9127 14.03 83.9963 13.951 83.9963 13.3822C83.9963 12.8767 84.4861 12.6397 85.1181 12.6397C85.829 12.6397 86.3188 12.8609 86.4136 13.5876H88.7836C88.6572 11.992 87.4248 10.9966 85.1339 10.9966C83.2221 10.9966 81.6421 11.8814 81.6421 13.5876C81.6421 15.4835 83.1431 15.8626 84.5493 16.0996C85.6236 16.2892 86.6032 16.3682 86.6032 17.0949C86.6032 17.6163 86.1134 17.9007 85.3392 17.9007C84.4861 17.9007 83.9489 17.5057 83.8541 16.7H81.4209C81.4999 18.4852 82.9851 19.5753 85.355 19.5753Z" fill="#636363"/>
<path d="M92.5349 19.5596C93.6567 19.5596 94.3677 19.1172 94.9523 18.3273H94.9997V19.3226H97.4644V11.2337H94.8891V15.7521C94.8891 16.7158 94.3519 17.3794 93.4671 17.3794C92.6455 17.3794 92.2505 16.8896 92.2505 16.0049V11.2337H89.6909V16.5421C89.6909 18.3431 90.6705 19.5596 92.5349 19.5596Z" fill="#636363"/>
<path d="M98.584 19.3225H101.159V14.7883C101.159 13.8246 101.633 13.1453 102.439 13.1453C103.213 13.1453 103.577 13.6508 103.577 14.5197V19.3225H106.152V14.7883C106.152 13.8246 106.61 13.1453 107.432 13.1453C108.206 13.1453 108.569 13.6508 108.569 14.5197V19.3225H111.145V14.0616C111.145 12.2447 110.228 10.9966 108.396 10.9966C107.353 10.9966 106.484 11.439 105.852 12.4185H105.82C105.41 11.5496 104.604 10.9966 103.545 10.9966C102.376 10.9966 101.602 11.5496 101.096 12.3869H101.049V11.2336H98.584V19.3225Z" fill="#636363"/>
<path fill-rule="evenodd" clip-rule="evenodd" d="M13.617 0.633301C21.0309 0.633301 27.0411 6.64304 27.0411 14.0564C27.0411 21.4699 21.0309 27.4797 13.617 27.4797C6.20305 27.4797 0.192871 21.4699 0.192871 14.0564C0.192871 6.64304 6.20305 0.633301 13.617 0.633301ZM26.5259 14.0564C26.5259 6.92761 20.7464 1.14848 13.617 1.14848C13.0419 1.14848 12.4757 1.18608 11.9204 1.25896C12.2792 1.2276 12.6422 1.21159 13.009 1.21159C19.8215 1.21159 25.3441 6.73381 25.3441 13.5458C25.3441 20.3577 19.8215 25.88 13.009 25.88C6.55941 25.88 1.26594 20.9304 0.720297 14.6228C1.01671 21.4889 6.67735 26.9644 13.617 26.9644C20.7464 26.9644 26.5259 21.1853 26.5259 14.0564ZM24.8288 13.5458C24.8288 7.01832 19.5369 1.72678 13.009 1.72678C12.479 1.72678 11.957 1.76167 11.4455 1.82927C11.7605 1.80277 12.0792 1.78925 12.401 1.78925C18.6121 1.78925 23.6471 6.82393 23.6471 13.0345C23.6471 19.2451 18.6121 24.2797 12.401 24.2797C6.52835 24.2797 1.70703 19.7786 1.19922 14.0383C1.45741 20.3373 6.64607 25.3648 13.009 25.3648C19.5369 25.3648 24.8288 20.0732 24.8288 13.5458ZM12.401 2.30443C18.3275 2.30443 23.1319 7.10844 23.1319 13.0345C23.1319 18.9605 18.3275 23.7645 12.401 23.7645C6.61191 23.7645 1.89344 19.1805 1.67794 13.4444C2.14321 18.6218 6.49427 22.6794 11.7931 22.6794C17.4023 22.6794 21.9494 18.1326 21.9494 12.5238C21.9494 6.91497 17.4023 2.36818 11.7931 2.36818C11.5029 2.36818 11.2156 2.38035 10.9316 2.4042C11.412 2.33842 11.9025 2.30443 12.401 2.30443ZM21.4342 12.5238C21.4342 7.19954 17.1177 2.88337 11.7931 2.88337C11.3432 2.88337 10.9005 2.91418 10.4671 2.9738C10.7037 2.95528 10.943 2.94585 11.1844 2.94585C16.1922 2.94585 20.2518 7.00509 20.2518 12.0125C20.2518 17.0198 16.1922 21.0791 11.1844 21.0791C6.47107 21.0791 2.59768 17.483 2.15863 12.885C2.34858 18.0419 6.58939 22.1642 11.7931 22.1642C17.1177 22.1642 21.4342 17.8481 21.4342 12.5238ZM11.1844 3.46103C15.9076 3.46103 19.7365 7.28966 19.7365 12.0125C19.7365 16.7353 15.9076 20.5639 11.1844 20.5639C6.55433 20.5639 2.78361 16.8847 2.63685 12.2905C3.03324 16.3259 6.43665 19.4788 10.5765 19.4788C14.9828 19.4788 18.5547 15.9071 18.5547 11.5011C18.5547 7.09521 14.9828 3.52349 10.5765 3.52349C10.3744 3.52349 10.1741 3.531 9.97582 3.54576C10.3707 3.48991 10.7742 3.46103 11.1844 3.46103ZM18.0395 11.5011C18.0395 7.37971 14.6982 4.03868 10.5765 4.03868C10.2002 4.03868 9.83053 4.06652 9.46924 4.12025C9.63415 4.10844 9.80064 4.10243 9.96858 4.10243C13.773 4.10243 16.8571 7.18631 16.8571 10.9904C16.8571 14.7946 13.773 17.8785 9.96858 17.8785C6.40359 17.8785 3.47115 15.1706 3.11609 11.6997C3.22135 15.7293 6.5212 18.9636 10.5765 18.9636C14.6982 18.9636 18.0395 15.6225 18.0395 11.5011ZM9.96858 4.61762C13.4884 4.61762 16.3418 7.47082 16.3418 10.9904C16.3418 14.5101 13.4884 17.3633 9.96858 17.3633C6.49346 17.3633 3.66798 14.5823 3.59663 11.1245C3.91764 14.0235 6.3758 16.2782 9.36061 16.2782C12.5636 16.2782 15.1601 13.6819 15.1601 10.4792C15.1601 7.27643 12.5636 4.68008 9.36061 4.68008C9.2381 4.68008 9.11651 4.68388 8.9959 4.69136C9.31302 4.6428 9.63783 4.61762 9.96858 4.61762ZM14.6449 10.4792C14.6449 7.56094 12.279 5.19527 9.36061 5.19527C9.06753 5.19527 8.78004 5.21913 8.49992 5.265C8.5834 5.2606 8.6674 5.25838 8.75199 5.25838C11.3534 5.25838 13.4624 7.36714 13.4624 9.96846C13.4624 12.5698 11.3534 14.6786 8.75199 14.6786C6.34649 14.6786 4.36215 12.8755 4.07678 10.5473C4.11331 13.4342 6.46497 15.763 9.36061 15.763C12.279 15.763 14.6449 13.3974 14.6449 10.4792ZM8.75199 5.77356C11.0689 5.77356 12.9472 7.65165 12.9472 9.96846C12.9472 12.2853 11.0689 14.1633 8.75199 14.1633C6.43502 14.1633 4.55677 12.2853 4.55677 9.96846C4.55677 9.96293 4.55678 9.95733 4.5568 9.95181C4.79802 11.7173 6.31215 13.0776 8.14403 13.0776C10.1437 13.0776 11.7648 11.4567 11.7648 9.45718C11.7648 7.45759 10.1437 5.83668 8.14403 5.83668C8.0988 5.83668 8.05377 5.83751 8.00894 5.83915C8.25008 5.79605 8.4984 5.77356 8.75199 5.77356ZM11.2495 9.45718C11.2495 7.74216 9.85916 6.35187 8.14403 6.35187C6.42889 6.35187 5.03851 7.74216 5.03851 9.45718C5.03851 11.1721 6.42889 12.5624 8.14403 12.5624C9.85916 12.5624 11.2495 11.1721 11.2495 9.45718Z" fill="#636363"/>
</g>
<defs>
<clipPath id="clip0_10_818">
<rect width="111.257" height="27.6477" fill="white"/>
</clipPath>
</defs>
</svg>
