<svg width="118" height="31" viewBox="0 0 118 31" fill="none" xmlns="http://www.w3.org/2000/svg">
<path d="M34.2075 9.96645H37.0589V21.4728H34.2075V9.96645ZM38.1959 17.1447C38.1959 14.2946 39.9725 12.5864 42.6373 12.5864C45.3021 12.5864 47.0787 14.2946 47.0787 17.1447C47.0787 19.9947 45.3643 21.7207 42.6373 21.7207C39.9103 21.7207 38.1959 20.0567 38.1959 17.1447ZM44.254 17.1447C44.254 15.578 43.641 14.6575 42.6639 14.6575C41.6868 14.6575 41.0828 15.5426 41.0828 17.1447C41.0828 18.7467 41.6868 19.623 42.6639 19.623C43.641 19.623 44.2717 18.7467 44.2717 17.1535L44.254 17.1447ZM48.2157 22.0659H50.9694C51.0947 22.3612 51.3136 22.6077 51.5927 22.7675C51.8718 22.9273 52.1957 22.9918 52.515 22.951C53.6075 22.951 54.176 22.3668 54.176 21.4994V19.9062H54.1849C53.9496 20.4023 53.5691 20.8157 53.0935 21.0922C52.6178 21.3687 52.0693 21.4952 51.5201 21.4551C49.4326 21.4551 48.0469 19.8708 48.0469 17.1447C48.0469 14.4185 49.3704 12.7191 51.6 12.7191C52.1633 12.6891 52.7221 12.8338 53.1993 13.1334C53.6766 13.4331 54.0488 13.8728 54.2649 14.392H54.1849V12.7899H57.0097V21.4109C57.0097 23.4909 55.162 24.792 52.4439 24.792C49.9745 24.7831 48.3933 23.659 48.2335 22.0747L48.2157 22.0659ZM54.1849 17.1447C54.1849 15.755 53.5454 14.8788 52.5327 14.8788C51.5201 14.8788 50.8983 15.7639 50.8983 17.1447C50.8983 18.5254 51.5112 19.3397 52.5327 19.3397C53.5542 19.3397 54.1849 18.5874 54.1849 17.1447ZM58.1378 17.1447C58.1378 14.2946 59.9143 12.5864 62.5792 12.5864C65.244 12.5864 67.0206 14.2946 67.0206 17.1447C67.0206 19.9947 65.2973 21.7207 62.5792 21.7207C59.861 21.7207 58.1555 20.0567 58.1555 17.1447H58.1378ZM64.1958 17.1447C64.1958 15.578 63.574 14.6575 62.6058 14.6575C61.6376 14.6575 61.0247 15.5426 61.0247 17.1447C61.0247 18.7467 61.6287 19.623 62.6058 19.623C63.5829 19.623 64.2136 18.7467 64.2136 17.1535L64.1958 17.1447ZM68.1753 10.6922C68.1629 10.4028 68.2377 10.1163 68.39 9.86962C68.5424 9.62285 68.7653 9.42724 69.0302 9.30784C69.2951 9.18835 69.5897 9.15064 69.8763 9.1995C70.1628 9.24827 70.4282 9.38139 70.6382 9.58169C70.8482 9.78208 70.9932 10.0404 71.0547 10.3235C71.1161 10.6066 71.0911 10.9017 70.9829 11.1705C70.8747 11.4394 70.6883 11.6698 70.4475 11.8323C70.2068 11.9947 69.9228 12.0816 69.6321 12.0819C69.4464 12.0865 69.2614 12.0544 69.0882 11.9874C68.915 11.9203 68.7568 11.8196 68.6229 11.6912C68.4891 11.5627 68.3821 11.4091 68.3084 11.2391C68.2346 11.0691 68.1954 10.8862 68.1931 10.7011L68.1753 10.6922ZM68.1753 12.7811H71.0622V21.5082H68.2197L68.1753 12.7811ZM81.4462 17.1447C81.4462 19.9859 80.1671 21.6322 77.9908 21.6322C77.4337 21.6664 76.8794 21.5294 76.4028 21.2398C75.9263 20.9501 75.5504 20.5217 75.326 20.0124H75.2727V24.314H72.4213V12.8076H75.2549V14.3654H75.3082C75.5249 13.8461 75.8971 13.406 76.374 13.105C76.8509 12.8041 77.4093 12.657 77.973 12.6837C80.2115 12.666 81.4995 14.3035 81.4995 17.1535L81.4462 17.1447ZM78.5415 17.1447C78.5415 15.7639 77.8931 14.8699 76.8893 14.8699C75.8856 14.8699 75.2549 15.755 75.246 17.1447C75.2371 18.5343 75.8856 19.4105 76.8893 19.4105C77.8931 19.4105 78.5948 18.5874 78.5948 17.1535L78.5415 17.1447ZM86.314 12.5775C88.7035 12.5775 90.1869 13.7016 90.2047 15.5072H87.602C87.602 14.8788 87.0779 14.4893 86.2962 14.4893C85.5145 14.4893 85.1415 14.7903 85.1415 15.2417C85.1415 15.6931 85.4701 15.8347 86.1274 15.9675L87.9573 16.3392C89.7339 16.711 90.4445 17.419 90.4445 18.7379C90.4445 20.5081 88.8012 21.7118 86.3584 21.7118C83.9156 21.7118 82.3256 20.5435 82.2101 18.7644H84.9727C85.0526 19.4105 85.5678 19.7911 86.4028 19.7911C87.2378 19.7911 87.6286 19.5256 87.6286 19.0565C87.6286 18.5874 87.3622 18.5077 86.6782 18.3661L85.026 18.0209C83.3116 17.658 82.4144 16.7641 82.4144 15.4276C82.4677 13.6927 83.96 12.5864 86.3673 12.5864L86.314 12.5775ZM99.9935 21.4994H97.2309V19.8619H97.1776C97.0231 20.4081 96.6864 20.8855 96.2227 21.2153C95.7591 21.5451 95.1968 21.7077 94.6283 21.6764C94.1992 21.6903 93.7711 21.6137 93.374 21.4513C92.977 21.2891 92.6181 21.0449 92.3223 20.7348C92.0256 20.4247 91.7991 20.0557 91.6561 19.6521C91.5131 19.2485 91.4571 18.8192 91.4927 18.3927V12.7899H94.344V17.7819C94.344 18.8087 94.8859 19.3663 95.7742 19.3663C95.9829 19.3647 96.1881 19.3186 96.3773 19.2311C96.5665 19.1436 96.7344 19.0167 96.8694 18.8589C97.0053 18.7012 97.1057 18.5163 97.1634 18.3168C97.2203 18.1172 97.2345 17.9077 97.2043 17.7023V12.7899H100.047L99.9935 21.4994ZM101.37 12.7811H104.142V14.4628H104.204C104.357 13.924 104.685 13.4511 105.137 13.118C105.589 12.7849 106.139 12.6103 106.7 12.6218C107.264 12.5729 107.826 12.7354 108.276 13.0775C108.726 13.4196 109.032 13.9168 109.134 14.4716H109.258C109.436 13.9138 109.793 13.43 110.275 13.0955C110.757 12.7609 111.337 12.5944 111.923 12.6218C112.313 12.607 112.702 12.6744 113.064 12.8197C113.426 12.9648 113.753 13.1846 114.024 13.4646C114.295 13.7444 114.503 14.0782 114.635 14.4439C114.768 14.8097 114.822 15.1991 114.792 15.5869V21.5082H111.923V16.3127C111.923 15.4276 111.506 14.9319 110.697 14.9319C110.518 14.929 110.34 14.9647 110.176 15.0366C110.011 15.1086 109.866 15.215 109.747 15.3487C109.628 15.4824 109.539 15.6401 109.487 15.8111C109.435 15.9821 109.421 16.1622 109.445 16.3392V21.5082H106.727V16.2861C106.727 15.401 106.291 14.9319 105.51 14.9319C105.328 14.9305 105.149 14.9677 104.984 15.0409C104.818 15.1143 104.67 15.222 104.549 15.357C104.43 15.492 104.34 15.651 104.287 15.8235C104.232 15.996 104.216 16.1779 104.239 16.3569V21.5082H101.388L101.37 12.7811Z" fill="#636363"/>
<path d="M28.5674 10.7187C28.5674 8.9571 28.0336 7.23651 27.0357 5.78233C26.0378 4.32815 24.6223 3.20818 22.9748 2.56913C21.3273 1.93008 19.5245 1.80174 17.8026 2.20091C16.0805 2.60009 14.5197 3.50817 13.3245 4.80621H2.23877V28.1199H25.6449V17.2243C26.5636 16.4055 27.2987 15.403 27.8023 14.282C28.3058 13.161 28.5666 11.9469 28.5674 10.7187ZM24.0638 10.7187C24.0656 11.5629 23.8159 12.3886 23.3466 13.0913C22.8771 13.794 22.2091 14.3423 21.4269 14.6665C20.6447 14.9908 19.7836 15.0766 18.9524 14.9129C18.1214 14.7493 17.3576 14.3437 16.7579 13.7474C16.1583 13.1511 15.7497 12.391 15.5837 11.5631C15.4178 10.7354 15.5021 9.87708 15.8259 9.09704C16.1497 8.31696 16.6984 7.65014 17.4027 7.18097C18.107 6.71181 18.9351 6.46137 19.7823 6.46136C20.9162 6.46136 22.0039 6.90963 22.8066 7.70778C23.6093 8.50594 24.0615 9.5888 24.0638 10.7187ZM21.1413 23.6324H6.74235V9.29371H11.1304C11.0457 9.76414 11.0011 10.2409 10.9972 10.7187C10.9996 13.0397 11.9259 15.2648 13.5729 16.906C15.2199 18.5471 17.453 19.4701 19.7823 19.4724C20.2377 19.47 20.6921 19.4315 21.1413 19.3574V23.6324Z" fill="#636363"/>
</svg>
