<svg width="84" height="19" viewBox="0 0 84 19" fill="none" xmlns="http://www.w3.org/2000/svg">
<g clip-path="url(#clip0_10_844)">
<path fill-rule="evenodd" clip-rule="evenodd" d="M7.15418 13.2909C6.52171 13.2909 5.91515 13.0408 5.46792 12.5957C5.0207 12.1506 4.76945 11.547 4.76945 10.9175V0H0V10.9175C0 14.8497 3.20317 18.0376 7.15418 18.0376H12.4006V13.2909H7.15418ZM21.4625 4.74674C20.8988 4.74674 20.3407 4.85724 19.8199 5.07193C19.2991 5.28663 18.8259 5.6013 18.4273 5.998C18.0287 6.3947 17.7125 6.86565 17.4968 7.38396C17.2811 7.90227 17.17 8.45779 17.17 9.01881C17.17 9.57983 17.2811 10.1353 17.4968 10.6537C17.7125 11.172 18.0287 11.6429 18.4273 12.0396C18.8259 12.4363 19.2991 12.751 19.8199 12.9657C20.3407 13.1804 20.8988 13.2909 21.4625 13.2909C22.601 13.2909 23.6928 12.8408 24.4978 12.0396C25.3028 11.2385 25.7551 10.1518 25.7551 9.01881C25.7551 7.88579 25.3028 6.79917 24.4978 5.998C23.6928 5.19683 22.601 4.74674 21.4625 4.74674ZM12.4006 9.01881C12.4006 4.03805 16.458 0 21.4625 0C26.4671 0 30.5245 4.03805 30.5245 9.01881C30.5245 13.9996 26.4671 18.0376 21.4625 18.0376C16.458 18.0376 12.4006 13.9996 12.4006 9.01881ZM72.9726 4.74674C71.8342 4.74674 70.7424 5.19683 69.9374 5.998C69.1324 6.79917 68.6801 7.88579 68.6801 9.01881C68.6801 10.1518 69.1324 11.2385 69.9374 12.0396C70.7424 12.8408 71.8342 13.2909 72.9726 13.2909C74.1111 13.2909 75.2029 12.8408 76.0079 12.0396C76.8129 11.2385 77.2652 10.1518 77.2652 9.01881C77.2652 7.88579 76.8129 6.79917 76.0079 5.998C75.2029 5.19683 74.1111 4.74674 72.9726 4.74674ZM63.9107 9.01881C63.9107 4.03805 67.9681 0 72.9726 0C77.9772 0 82.0346 4.03805 82.0346 9.01881C82.0346 13.9996 77.9772 18.0376 72.9726 18.0376C67.9681 18.0376 63.9107 13.9996 63.9107 9.01881ZM40.5404 0C35.5358 0 31.4784 4.03805 31.4784 9.01881C31.4784 13.9996 35.5358 18.0376 40.5404 18.0376H53.8948C54.8339 18.0376 55.7397 17.8952 56.5915 17.6313L59.1412 18.987L61.8923 13.8586C62.5911 12.5531 62.9567 11.0966 62.9568 9.61737V9.01881C62.9568 4.03805 58.8994 0 53.8948 0H40.5404ZM58.1873 9.01881C58.1873 7.88579 57.7351 6.79917 56.9301 5.998C56.1251 5.19683 55.0333 4.74674 53.8948 4.74674H40.5404C39.9767 4.74674 39.4185 4.85724 38.8977 5.07193C38.3769 5.28663 37.9037 5.6013 37.5051 5.998C37.1065 6.3947 36.7903 6.86565 36.5746 7.38396C36.3589 7.90227 36.2479 8.45779 36.2479 9.01881C36.2479 9.57983 36.3589 10.1353 36.5746 10.6537C36.7903 11.172 37.1065 11.6429 37.5051 12.0396C37.9037 12.4363 38.3769 12.751 38.8977 12.9657C39.4185 13.1804 39.9767 13.2909 40.5404 13.2909H53.8948C55.0275 13.2909 56.1143 12.8454 56.9184 12.0514C57.7224 11.2574 58.1785 10.1793 58.1873 9.05204V9.01881Z" fill="#636363"/>
<path d="M83.9423 1.18662C83.9423 1.50135 83.8167 1.80319 83.5931 2.02574C83.3695 2.24828 83.0662 2.37331 82.75 2.37331C82.4337 2.37331 82.1305 2.24828 81.9069 2.02574C81.6832 1.80319 81.5576 1.50135 81.5576 1.18662C81.5576 0.871896 81.6832 0.570058 81.9069 0.347511C82.1305 0.124964 82.4337 -6.10352e-05 82.75 -6.10352e-05C83.0662 -6.10352e-05 83.3695 0.124964 83.5931 0.347511C83.8167 0.570058 83.9423 0.871896 83.9423 1.18662Z" fill="#636363"/>
</g>
<defs>
<clipPath id="clip0_10_844">
<rect width="83.9424" height="18.987" fill="white"/>
</clipPath>
</defs>
</svg>
