<svg width="15" height="15" viewBox="0 0 15 15" fill="none" xmlns="http://www.w3.org/2000/svg">
<path d="M3.21094 14.3594H0.232422V4.76758H3.21094V14.3594ZM10.7871 4.53516C13.7984 4.53516 14.3574 6.52001 14.3574 9.10352V14.3594H11.3848V9.69629C11.3848 8.58197 11.3685 7.15137 9.84082 7.15137C8.29091 7.15137 8.0586 8.36589 8.05859 9.61328V14.3594H5.08594V4.76758H7.93066V6.08203H7.96973C8.36825 5.32809 9.33697 4.53526 10.7871 4.53516ZM1.72754 0C2.67934 0.000258985 3.45397 0.776191 3.4541 1.72949C3.4541 2.6829 2.67942 3.45873 1.72754 3.45898C0.769905 3.45898 0 2.68306 0 1.72949C0.000127819 0.776032 0.769985 0 1.72754 0Z" fill="black"/>
</svg>
